<svg version="1.1" viewBox="0.0 0.0 745.0 371.0" fill="none" stroke="none" stroke-linecap="square" stroke-miterlimit="10" width="745" height="371" xmlns:xlink="http://www.w3.org/1999/xlink" xmlns="http://www.w3.org/2000/svg"><path fill="#ffffff" d="M0 0L745.0 0L745.0 371.0L0 371.0L0 0Z" fill-rule="nonzero"/><path stroke="#333333" stroke-width="1.0" stroke-linecap="butt" d="M45.5 332.5L726.5 332.5" fill-rule="nonzero"/><path stroke="#cccccc" stroke-width="1.0" stroke-linecap="butt" d="M45.5 238.5L726.5 238.5" fill-rule="nonzero"/><path stroke="#cccccc" stroke-width="1.0" stroke-linecap="butt" d="M45.5 145.5L726.5 145.5" fill-rule="nonzero"/><path stroke="#cccccc" stroke-width="1.0" stroke-linecap="butt" d="M45.5 51.5L726.5 51.5" fill-rule="nonzero"/><clipPath id="id_0"><path d="M45.55 51.916668L726.45 51.916668L726.45 332.45L45.55 332.45L45.55 51.916668Z" clip-rule="nonzero"/></clipPath><path stroke="#695656" stroke-width="2.0" stroke-linecap="butt" clip-path="url(#id_0)" d="M130.6625 201.53444L300.8875 220.23666L471.1125 257.6411L641.3375 285.69446" fill-rule="nonzero"/><path stroke="#f28585" stroke-width="2.0" stroke-linecap="butt" clip-path="url(#id_0)" d="M130.6625 192.18333L300.8875 238.93889L471.1125 257.6411L641.3375 276.34332" fill-rule="nonzero"/><path stroke="#ffdd00" stroke-width="2.0" stroke-linecap="butt" clip-path="url(#id_0)" d="M130.6625 117.37444L300.8875 117.37444L471.1125 136.07666L641.3375 117.37444" fill-rule="nonzero"/><path stroke="#40005a" stroke-width="2.0" stroke-linecap="butt" clip-path="url(#id_0)" d="M130.6625 173.48111L300.8875 154.77888L471.1125 89.32111L641.3375 126.725555" fill-rule="nonzero"/><path fill="#000000" fill-opacity="0.0" clip-path="url(#id_0)" d="M133.6625 201.53444C133.6625 203.1913 132.31935 204.53444 130.6625 204.53444C129.00565 204.53444 127.6625 203.1913 127.6625 201.53444C127.6625 199.8776 129.00565 198.53444 130.6625 198.53444C132.31935 198.53444 133.6625 199.8776 133.6625 201.53444Z" fill-rule="nonzero"/><path fill="#000000" fill-opacity="0.0" clip-path="url(#id_0)" d="M303.8875 220.23666C303.8875 221.89352 302.54434 223.23666 300.8875 223.23666C299.23065 223.23666 297.8875 221.89352 297.8875 220.23666C297.8875 218.57982 299.23065 217.23666 300.8875 217.23666C302.54434 217.23666 303.8875 218.57982 303.8875 220.23666Z" fill-rule="nonzero"/><path fill="#000000" fill-opacity="0.0" clip-path="url(#id_0)" d="M474.1125 257.6411C474.1125 259.29797 472.76935 260.6411 471.1125 260.6411C469.45566 260.6411 468.1125 259.29797 468.1125 257.6411C468.1125 255.98425 469.45566 254.64111 471.1125 254.64111C472.76935 254.64111 474.1125 255.98425 474.1125 257.6411Z" fill-rule="nonzero"/><path fill="#000000" fill-opacity="0.0" clip-path="url(#id_0)" d="M644.3375 285.69446C644.3375 287.3513 642.9944 288.69446 641.3375 288.69446C639.68066 288.69446 638.3375 287.3513 638.3375 285.69446C638.3375 284.0376 639.68066 282.69446 641.3375 282.69446C642.9944 282.69446 644.3375 284.0376 644.3375 285.69446Z" fill-rule="nonzero"/><path fill="#000000" fill-opacity="0.0" clip-path="url(#id_0)" d="M133.6625 192.18333C133.6625 193.8402 132.31935 195.18333 130.6625 195.18333C129.00565 195.18333 127.6625 193.8402 127.6625 192.18333C127.6625 190.52647 129.00565 189.18333 130.6625 189.18333C132.31935 189.18333 133.6625 190.52647 133.6625 192.18333Z" fill-rule="nonzero"/><path fill="#000000" fill-opacity="0.0" clip-path="url(#id_0)" d="M303.8875 238.93889C303.8875 240.59575 302.54434 241.93889 300.8875 241.93889C299.23065 241.93889 297.8875 240.59575 297.8875 238.93889C297.8875 237.28203 299.23065 235.93889 300.8875 235.93889C302.54434 235.93889 303.8875 237.28203 303.8875 238.93889Z" fill-rule="nonzero"/><path fill="#000000" fill-opacity="0.0" clip-path="url(#id_0)" d="M474.1125 257.6411C474.1125 259.29797 472.76935 260.6411 471.1125 260.6411C469.45566 260.6411 468.1125 259.29797 468.1125 257.6411C468.1125 255.98425 469.45566 254.64111 471.1125 254.64111C472.76935 254.64111 474.1125 255.98425 474.1125 257.6411Z" fill-rule="nonzero"/><path fill="#000000" fill-opacity="0.0" clip-path="url(#id_0)" d="M644.3375 276.34332C644.3375 278.00018 642.9944 279.34332 641.3375 279.34332C639.68066 279.34332 638.3375 278.00018 638.3375 276.34332C638.3375 274.6865 639.68066 273.34332 641.3375 273.34332C642.9944 273.34332 644.3375 274.6865 644.3375 276.34332Z" fill-rule="nonzero"/><path fill="#000000" fill-opacity="0.0" clip-path="url(#id_0)" d="M133.6625 117.37444C133.6625 119.031296 132.31935 120.37444 130.6625 120.37444C129.00565 120.37444 127.6625 119.031296 127.6625 117.37444C127.6625 115.71759 129.00565 114.37444 130.6625 114.37444C132.31935 114.37444 133.6625 115.71759 133.6625 117.37444Z" fill-rule="nonzero"/><path fill="#000000" fill-opacity="0.0" clip-path="url(#id_0)" d="M303.8875 117.37444C303.8875 119.031296 302.54434 120.37444 300.8875 120.37444C299.23065 120.37444 297.8875 119.031296 297.8875 117.37444C297.8875 115.71759 299.23065 114.37444 300.8875 114.37444C302.54434 114.37444 303.8875 115.71759 303.8875 117.37444Z" fill-rule="nonzero"/><path fill="#000000" fill-opacity="0.0" clip-path="url(#id_0)" d="M474.1125 136.07666C474.1125 137.73352 472.76935 139.07666 471.1125 139.07666C469.45566 139.07666 468.1125 137.73352 468.1125 136.07666C468.1125 134.41982 469.45566 133.07666 471.1125 133.07666C472.76935 133.07666 474.1125 134.41982 474.1125 136.07666Z" fill-rule="nonzero"/><path fill="#000000" fill-opacity="0.0" clip-path="url(#id_0)" d="M644.3375 117.37444C644.3375 119.031296 642.9944 120.37444 641.3375 120.37444C639.68066 120.37444 638.3375 119.031296 638.3375 117.37444C638.3375 115.71759 639.68066 114.37444 641.3375 114.37444C642.9944 114.37444 644.3375 115.71759 644.3375 117.37444Z" fill-rule="nonzero"/><path fill="#000000" fill-opacity="0.0" clip-path="url(#id_0)" d="M133.6625 173.48111C133.6625 175.13797 132.31935 176.48111 130.6625 176.48111C129.00565 176.48111 127.6625 175.13797 127.6625 173.48111C127.6625 171.82425 129.00565 170.48111 130.6625 170.48111C132.31935 170.48111 133.6625 171.82425 133.6625 173.48111Z" fill-rule="nonzero"/><path fill="#000000" fill-opacity="0.0" clip-path="url(#id_0)" d="M303.8875 154.77888C303.8875 156.43575 302.54434 157.77888 300.8875 157.77888C299.23065 157.77888 297.8875 156.43575 297.8875 154.77888C297.8875 153.12204 299.23065 151.77888 300.8875 151.77888C302.54434 151.77888 303.8875 153.12204 303.8875 154.77888Z" fill-rule="nonzero"/><path fill="#000000" fill-opacity="0.0" clip-path="url(#id_0)" d="M474.1125 89.32111C474.1125 90.97797 472.76935 92.32111 471.1125 92.32111C469.45566 92.32111 468.1125 90.97797 468.1125 89.32111C468.1125 87.66425 469.45566 86.32111 471.1125 86.32111C472.76935 86.32111 474.1125 87.66425 474.1125 89.32111Z" fill-rule="nonzero"/><path fill="#000000" fill-opacity="0.0" clip-path="url(#id_0)" d="M644.3375 126.725555C644.3375 128.38242 642.9944 129.72556 641.3375 129.72556C639.68066 129.72556 638.3375 128.38242 638.3375 126.725555C638.3375 125.0687 639.68066 123.725555 641.3375 123.725555C642.9944 123.725555 644.3375 125.0687 644.3375 126.725555Z" fill-rule="nonzero"/><path fill="#000000" d="M33.05 332.21564Q33.05 330.6844 33.3625 329.7625Q33.675 328.825 34.284374 328.325Q34.909374 327.825 35.846874 327.825Q36.534374 327.825 37.05 328.10626Q37.58125 328.3875 37.925 328.91876Q38.26875 329.4344 38.45625 330.1844Q38.64375 330.9344 38.64375 332.21564Q38.64375 333.73126 38.33125 334.65314Q38.034374 335.575 37.409374 336.09064Q36.8 336.59064 35.846874 336.59064Q34.6125 336.59064 33.89375 335.7Q33.05 334.6375 33.05 332.21564ZM34.128124 332.21564Q34.128124 334.325 34.628124 335.02814Q35.128124 335.73126 35.846874 335.73126Q36.58125 335.73126 37.065624 335.02814Q37.565624 334.325 37.565624 332.21564Q37.565624 330.09064 37.065624 329.40314Q36.58125 328.7 35.83125 328.7Q35.1125 328.7 34.675 329.3094Q34.128124 330.09064 34.128124 332.21564Z" fill-rule="nonzero"/><path fill="#000000" d="M30.01875 242.93889L28.971874 242.93889L28.971874 236.22014Q28.58125 236.57951 27.95625 236.95451Q27.346874 237.31389 26.8625 237.48576L26.8625 236.47014Q27.7375 236.04826 28.39375 235.47014Q29.065624 234.87639 29.346874 234.31389L30.01875 234.31389L30.01875 242.93889ZM33.05 238.70451Q33.05 237.17326 33.3625 236.25139Q33.675 235.31389 34.284374 234.81389Q34.909374 234.31389 35.846874 234.31389Q36.534374 234.31389 37.05 234.59514Q37.58125 234.87639 37.925 235.40764Q38.26875 235.92326 38.45625 236.67326Q38.64375 237.42326 38.64375 238.70451Q38.64375 240.22014 38.33125 241.14201Q38.034374 242.06389 37.409374 242.57951Q36.8 243.07951 35.846874 243.07951Q34.6125 243.07951 33.89375 242.18889Q33.05 241.12639 33.05 238.70451ZM34.128124 238.70451Q34.128124 240.81389 34.628124 241.51701Q35.128124 242.22014 35.846874 242.22014Q36.58125 242.22014 37.065624 241.51701Q37.565624 240.81389 37.565624 238.70451Q37.565624 236.57951 37.065624 235.89201Q36.58125 235.18889 35.83125 235.18889Q35.1125 235.18889 34.675 235.79826Q34.128124 236.57951 34.128124 238.70451Z" fill-rule="nonzero"/><path fill="#000000" d="M31.596874 148.41216L31.596874 149.42778L25.909374 149.42778Q25.909374 149.05278 26.034374 148.6934Q26.253124 148.11528 26.721874 147.55278Q27.20625 146.99028 28.1125 146.2559Q29.51875 145.09966 30.003124 144.42778Q30.503124 143.7559 30.503124 143.16216Q30.503124 142.53716 30.05 142.11528Q29.596874 141.67778 28.878124 141.67778Q28.1125 141.67778 27.659374 142.1309Q27.20625 142.58403 27.190624 143.39653L26.1125 143.28716Q26.221874 142.0684 26.940624 141.4434Q27.675 140.80278 28.909374 140.80278Q30.14375 140.80278 30.8625 141.49028Q31.58125 142.17778 31.58125 143.1934Q31.58125 143.70903 31.3625 144.20903Q31.159374 144.6934 30.659374 145.2559Q30.175 145.80278 29.05 146.7559Q28.096874 147.55278 27.815624 147.84966Q27.55 148.1309 27.378124 148.41216L31.596874 148.41216ZM33.05 145.1934Q33.05 143.66216 33.3625 142.74028Q33.675 141.80278 34.284374 141.30278Q34.909374 140.80278 35.846874 140.80278Q36.534374 140.80278 37.05 141.08403Q37.58125 141.36528 37.925 141.89653Q38.26875 142.41216 38.45625 143.16216Q38.64375 143.91216 38.64375 145.1934Q38.64375 146.70903 38.33125 147.6309Q38.034374 148.55278 37.409374 149.0684Q36.8 149.5684 35.846874 149.5684Q34.6125 149.5684 33.89375 148.67778Q33.05 147.61528 33.05 145.1934ZM34.128124 145.1934Q34.128124 147.30278 34.628124 148.0059Q35.128124 148.70903 35.846874 148.70903Q36.58125 148.70903 37.065624 148.0059Q37.565624 147.30278 37.565624 145.1934Q37.565624 143.0684 37.065624 142.3809Q36.58125 141.67778 35.83125 141.67778Q35.1125 141.67778 34.675 142.28716Q34.128124 143.0684 34.128124 145.1934Z" fill-rule="nonzero"/><path fill="#000000" d="M26.05 53.651043L27.1125 53.510418Q27.284374 54.401043 27.721874 54.807293Q28.159374 55.197918 28.784374 55.197918Q29.534374 55.197918 30.05 54.682293Q30.565624 54.166668 30.565624 53.401043Q30.565624 52.682293 30.08125 52.213543Q29.6125 51.729168 28.878124 51.729168Q28.58125 51.729168 28.128124 51.854168L28.253124 50.916668Q28.3625 50.932293 28.425 50.932293Q29.096874 50.932293 29.628124 50.588543Q30.175 50.229168 30.175 49.494793Q30.175 48.916668 29.784374 48.541668Q29.39375 48.151043 28.76875 48.151043Q28.159374 48.151043 27.7375 48.541668Q27.33125 48.932293 27.221874 49.697918L26.159374 49.510418Q26.346874 48.463543 27.034374 47.885418Q27.721874 47.291668 28.7375 47.291668Q29.440624 47.291668 30.034374 47.604168Q30.628124 47.901043 30.940624 48.416668Q31.253124 48.932293 31.253124 49.526043Q31.253124 50.072918 30.95625 50.541668Q30.659374 50.994793 30.08125 51.260418Q30.83125 51.432293 31.253124 51.994793Q31.675 52.541668 31.675 53.385418Q31.675 54.510418 30.846874 55.291668Q30.034374 56.072918 28.784374 56.072918Q27.659374 56.072918 26.909374 55.401043Q26.159374 54.713543 26.05 53.651043ZM33.05 51.682293Q33.05 50.151043 33.3625 49.229168Q33.675 48.291668 34.284374 47.791668Q34.909374 47.291668 35.846874 47.291668Q36.534374 47.291668 37.05 47.572918Q37.58125 47.854168 37.925 48.385418Q38.26875 48.901043 38.45625 49.651043Q38.64375 50.401043 38.64375 51.682293Q38.64375 53.197918 38.33125 54.119793Q38.034374 55.041668 37.409374 55.557293Q36.8 56.057293 35.846874 56.057293Q34.6125 56.057293 33.89375 55.166668Q33.05 54.104168 33.05 51.682293ZM34.128124 51.682293Q34.128124 53.791668 34.628124 54.494793Q35.128124 55.197918 35.846874 55.197918Q36.58125 55.197918 37.065624 54.494793Q37.565624 53.791668 37.565624 51.682293Q37.565624 49.557293 37.065624 48.869793Q36.58125 48.166668 35.83125 48.166668Q35.1125 48.166668 34.675 48.776043Q34.128124 49.557293 34.128124 51.682293Z" fill-rule="nonzero"/><path fill="#000000" d="M92.13125 349.45L91.08437 349.45L91.08437 342.73126Q90.69375 343.09064 90.06875 343.46564Q89.45937 343.825 88.975 343.9969L88.975 342.98126Q89.85 342.5594 90.50625 341.98126Q91.17812 341.3875 91.45937 340.825L92.13125 340.825L92.13125 349.45ZM96.7875 344.79376Q96.13125 344.54376 95.80312 344.10626Q95.49062 343.65314 95.49062 343.04376Q95.49062 342.10626 96.1625 341.46564Q96.85 340.825 97.95937 340.825Q99.08437 340.825 99.77187 341.48126Q100.45937 342.1375 100.45937 343.075Q100.45937 343.66876 100.14687 344.10626Q99.83437 344.54376 99.19375 344.79376Q99.99062 345.04376 100.39687 345.6219Q100.80312 346.2 100.80312 346.9969Q100.80312 348.09064 100.02187 348.84064Q99.25625 349.59064 97.975 349.59064Q96.70937 349.59064 95.92812 348.84064Q95.14687 348.09064 95.14687 346.96564Q95.14687 346.1219 95.56875 345.5594Q96.00625 344.9969 96.7875 344.79376ZM96.56875 342.9969Q96.56875 343.60626 96.95937 343.9969Q97.36562 344.3875 97.99062 344.3875Q98.6 344.3875 98.99062 344.0125Q99.38125 343.6219 99.38125 343.0594Q99.38125 342.48126 98.975 342.09064Q98.56875 341.6844 97.975 341.6844Q97.36562 341.6844 96.95937 342.075Q96.56875 342.46564 96.56875 342.9969ZM96.24062 346.96564Q96.24062 347.41876 96.44375 347.84064Q96.6625 348.2625 97.08437 348.4969Q97.50625 348.73126 97.99062 348.73126Q98.74062 348.73126 99.225 348.2469Q99.725 347.7625 99.725 347.0125Q99.725 346.2469 99.225 345.7469Q98.725 345.2469 97.95937 345.2469Q97.20937 345.2469 96.725 345.7469Q96.24062 346.23126 96.24062 346.96564ZM102.75625 349.45L102.75625 348.2469L103.95937 348.2469L103.95937 349.45L102.75625 349.45ZM108.00625 347.0125L109.0375 346.8719Q109.06875 347.85626 109.39687 348.21564Q109.725 348.575 110.31875 348.575Q110.74062 348.575 111.05312 348.3875Q111.36562 348.1844 111.475 347.85626Q111.6 347.5125 111.6 346.77814L111.6 340.85626L112.725 340.85626L112.725 346.71564Q112.725 347.79376 112.45937 348.3875Q112.20937 348.98126 111.64687 349.29376Q111.08437 349.59064 110.31875 349.59064Q109.19375 349.59064 108.58437 348.95Q107.99062 348.29376 108.00625 347.0125ZM118.52187 348.6844Q117.92812 349.1844 117.38125 349.3875Q116.85 349.59064 116.225 349.59064Q115.19375 349.59064 114.64687 349.09064Q114.1 348.59064 114.1 347.8094Q114.1 347.35626 114.30312 346.98126Q114.50625 346.59064 114.85 346.3719Q115.19375 346.1375 115.61562 346.02814Q115.9125 345.9344 116.55312 345.85626Q117.81875 345.71564 118.42812 345.4969Q118.42812 345.27814 118.42812 345.23126Q118.42812 344.575 118.13125 344.3094Q117.725 343.96564 116.92812 343.96564Q116.19375 343.96564 115.83437 344.23126Q115.475 344.48126 115.30312 345.1375L114.27187 344.9969Q114.4125 344.34064 114.74062 343.9344Q115.06875 343.52814 115.67812 343.3094Q116.2875 343.09064 117.08437 343.09064Q117.88125 343.09064 118.38125 343.27814Q118.88125 343.46564 119.11562 343.7469Q119.35 344.02814 119.44375 344.46564Q119.49062 344.73126 119.49062 345.4344L119.49062 346.84064Q119.49062 348.3094 119.55312 348.7Q119.63125 349.09064 119.83437 349.45L118.725 349.45Q118.56875 349.1219 118.52187 348.6844ZM118.42812 346.325Q117.85 346.5594 116.70937 346.73126Q116.05312 346.825 115.7875 346.95Q115.52187 347.0594 115.36562 347.27814Q115.225 347.4969 115.225 347.77814Q115.225 348.2 115.5375 348.48126Q115.86562 348.7625 116.475 348.7625Q117.08437 348.7625 117.55312 348.4969Q118.0375 348.23126 118.25625 347.7625Q118.42812 347.40314 118.42812 346.71564L118.42812 346.325ZM121.45937 349.45L121.45937 340.85626L122.50625 340.85626L122.50625 343.9344Q123.24062 343.09064 124.36562 343.09064Q125.06875 343.09064 125.56875 343.3719Q126.08437 343.6375 126.30312 344.1219Q126.52187 344.59064 126.52187 345.5125L126.52187 349.45L125.475 349.45L125.475 345.5125Q125.475 344.71564 125.13125 344.35626Q124.7875 343.9969 124.1625 343.9969Q123.69375 343.9969 123.27187 344.2469Q122.86562 344.48126 122.67812 344.90314Q122.50625 345.3094 122.50625 346.04376L122.50625 349.45L121.45937 349.45ZM128.44376 349.45L128.44376 343.23126L129.39688 343.23126L129.39688 344.16876Q129.75626 343.5125 130.05313 343.3094Q130.36563 343.09064 130.74063 343.09064Q131.27188 343.09064 131.81876 343.41876L131.45938 344.40314Q131.06876 344.16876 130.69376 344.16876Q130.33438 344.16876 130.05313 344.3875Q129.7875 344.59064 129.67813 344.96564Q129.49063 345.52814 129.49063 346.1844L129.49063 349.45L128.44376 349.45ZM132.45938 349.45L132.45938 340.85626L133.50626 340.85626L133.50626 343.9344Q134.24063 343.09064 135.36563 343.09064Q136.06876 343.09064 136.56876 343.3719Q137.08438 343.6375 137.30313 344.1219Q137.52188 344.59064 137.52188 345.5125L137.52188 349.45L136.475 349.45L136.475 345.5125Q136.475 344.71564 136.13126 344.35626Q135.7875 343.9969 135.1625 343.9969Q134.69376 343.9969 134.27188 344.2469Q133.86563 344.48126 133.67813 344.90314Q133.50626 345.3094 133.50626 346.04376L133.50626 349.45L132.45938 349.45ZM143.5375 349.45L143.5375 348.52814Q142.80313 349.59064 141.55313 349.59064Q141.00626 349.59064 140.52188 349.3875Q140.05313 349.16876 139.81876 348.85626Q139.58438 348.52814 139.49063 348.0594Q139.42813 347.7625 139.42813 347.075L139.42813 343.23126L140.49063 343.23126L140.49063 346.6844Q140.49063 347.4969 140.55313 347.79376Q140.64688 348.2 140.95938 348.45Q141.2875 348.6844 141.77188 348.6844Q142.24063 348.6844 142.64688 348.45Q143.06876 348.2 143.24063 347.77814Q143.42813 347.35626 143.42813 346.5594L143.42813 343.23126L144.475 343.23126L144.475 349.45L143.5375 349.45ZM146.45938 349.45L146.45938 343.23126L147.39688 343.23126L147.39688 344.10626Q148.08438 343.09064 149.38126 343.09064Q149.94376 343.09064 150.4125 343.29376Q150.89688 343.4969 151.13126 343.825Q151.36563 344.15314 151.45938 344.59064Q151.50626 344.8875 151.50626 345.6219L151.50626 349.45L150.45938 349.45L150.45938 345.66876Q150.45938 345.0125 150.33438 344.7Q150.20938 344.3875 149.89688 344.2Q149.58438 343.9969 149.1625 343.9969Q148.49063 343.9969 147.99063 344.4344Q147.50626 344.85626 147.50626 346.04376L147.50626 349.45L146.45938 349.45ZM157.49063 349.45L157.49063 348.66876Q156.89688 349.59064 155.75626 349.59064Q155.00626 349.59064 154.38126 349.1844Q153.75626 348.7625 153.4125 348.02814Q153.06876 347.29376 153.06876 346.34064Q153.06876 345.41876 153.38126 344.65314Q153.69376 343.8875 154.31876 343.4969Q154.94376 343.09064 155.70938 343.09064Q156.27188 343.09064 156.70938 343.325Q157.14688 343.5594 157.42813 343.9344L157.42813 340.85626L158.475 340.85626L158.475 349.45L157.49063 349.45ZM154.1625 346.34064Q154.1625 347.54376 154.6625 348.1375Q155.1625 348.71564 155.85 348.71564Q156.5375 348.71564 157.02188 348.15314Q157.50626 347.59064 157.50626 346.4344Q157.50626 345.15314 157.00626 344.5594Q156.52188 343.96564 155.80313 343.96564Q155.1 343.96564 154.63126 344.54376Q154.1625 345.10626 154.1625 346.34064ZM164.70938 347.45L165.80313 347.575Q165.55313 348.52814 164.85 349.0594Q164.14688 349.59064 163.06876 349.59064Q161.70938 349.59064 160.89688 348.7469Q160.1 347.90314 160.1 346.3875Q160.1 344.825 160.9125 343.96564Q161.725 343.09064 163.00626 343.09064Q164.25626 343.09064 165.0375 343.9344Q165.83438 344.77814 165.83438 346.325Q165.83438 346.41876 165.83438 346.60626L161.19376 346.60626Q161.25626 347.6375 161.77188 348.1844Q162.2875 348.71564 163.06876 348.71564Q163.64688 348.71564 164.05313 348.41876Q164.475 348.10626 164.70938 347.45ZM161.25626 345.7469L164.725 345.7469Q164.6625 344.95 164.33438 344.5594Q163.81876 343.95 163.02188 343.95Q162.2875 343.95 161.7875 344.4344Q161.30313 344.91876 161.25626 345.7469ZM167.44376 349.45L167.44376 343.23126L168.39688 343.23126L168.39688 344.16876Q168.75626 343.5125 169.05313 343.3094Q169.36563 343.09064 169.74063 343.09064Q170.27188 343.09064 170.81876 343.41876L170.45938 344.40314Q170.06876 344.16876 169.69376 344.16876Q169.33438 344.16876 169.05313 344.3875Q168.7875 344.59064 168.67813 344.96564Q168.49063 345.52814 168.49063 346.1844L168.49063 349.45L167.44376 349.45ZM173.75626 348.5125L173.9125 349.4344Q173.45938 349.52814 173.11563 349.52814Q172.5375 349.52814 172.225 349.35626Q171.9125 349.16876 171.77188 348.8719Q171.64688 348.575 171.64688 347.6219L171.64688 344.04376L170.88126 344.04376L170.88126 343.23126L171.64688 343.23126L171.64688 341.6844L172.69376 341.0594L172.69376 343.23126L173.75626 343.23126L173.75626 344.04376L172.69376 344.04376L172.69376 347.6844Q172.69376 348.1375 172.74063 348.2625Q172.80313 348.3875 172.92813 348.46564Q173.05313 348.54376 173.2875 348.54376Q173.475 348.54376 173.75626 348.5125Z" fill-rule="nonzero"/><path fill="#000000" d="M262.35626 349.45L261.3094 349.45L261.3094 342.73126Q260.91876 343.09064 260.29376 343.46564Q259.6844 343.825 259.2 343.9969L259.2 342.98126Q260.075 342.5594 260.73126 341.98126Q261.40314 341.3875 261.6844 340.825L262.35626 340.825L262.35626 349.45ZM265.54376 347.46564L266.5594 347.3719Q266.6844 348.09064 267.04376 348.41876Q267.41876 348.73126 267.98126 348.73126Q268.46564 348.73126 268.825 348.5125Q269.2 348.27814 269.4344 347.91876Q269.66876 347.54376 269.825 346.91876Q269.98126 346.27814 269.98126 345.6219Q269.98126 345.54376 269.98126 345.40314Q269.66876 345.90314 269.1219 346.23126Q268.575 346.54376 267.9344 346.54376Q266.85626 346.54376 266.1219 345.77814Q265.3875 344.9969 265.3875 343.73126Q265.3875 342.41876 266.15314 341.6219Q266.9344 340.825 268.09064 340.825Q268.91876 340.825 269.60626 341.27814Q270.3094 341.73126 270.66876 342.575Q271.02814 343.40314 271.02814 344.98126Q271.02814 346.6219 270.66876 347.60626Q270.325 348.575 269.60626 349.09064Q268.90314 349.59064 267.96564 349.59064Q266.95 349.59064 266.3094 349.04376Q265.66876 348.48126 265.54376 347.46564ZM269.85626 343.66876Q269.85626 342.7625 269.3719 342.23126Q268.90314 341.7 268.21564 341.7Q267.5125 341.7 266.98126 342.27814Q266.46564 342.84064 266.46564 343.7625Q266.46564 344.575 266.96564 345.09064Q267.46564 345.60626 268.1844 345.60626Q268.91876 345.60626 269.3875 345.09064Q269.85626 344.575 269.85626 343.66876ZM272.98126 349.45L272.98126 348.2469L274.1844 348.2469L274.1844 349.45L272.98126 349.45ZM278.23126 347.0125L279.2625 346.8719Q279.29376 347.85626 279.6219 348.21564Q279.95 348.575 280.54376 348.575Q280.96564 348.575 281.27814 348.3875Q281.59064 348.1844 281.7 347.85626Q281.825 347.5125 281.825 346.77814L281.825 340.85626L282.95 340.85626L282.95 346.71564Q282.95 347.79376 282.6844 348.3875Q282.4344 348.98126 281.8719 349.29376Q281.3094 349.59064 280.54376 349.59064Q279.41876 349.59064 278.8094 348.95Q278.21564 348.29376 278.23126 347.0125ZM288.7469 348.6844Q288.15314 349.1844 287.60626 349.3875Q287.075 349.59064 286.45 349.59064Q285.41876 349.59064 284.8719 349.09064Q284.325 348.59064 284.325 347.8094Q284.325 347.35626 284.52814 346.98126Q284.73126 346.59064 285.075 346.3719Q285.41876 346.1375 285.84064 346.02814Q286.1375 345.9344 286.77814 345.85626Q288.04376 345.71564 288.65314 345.4969Q288.65314 345.27814 288.65314 345.23126Q288.65314 344.575 288.35626 344.3094Q287.95 343.96564 287.15314 343.96564Q286.41876 343.96564 286.0594 344.23126Q285.7 344.48126 285.52814 345.1375L284.4969 344.9969Q284.6375 344.34064 284.96564 343.9344Q285.29376 343.52814 285.90314 343.3094Q286.5125 343.09064 287.3094 343.09064Q288.10626 343.09064 288.60626 343.27814Q289.10626 343.46564 289.34064 343.7469Q289.575 344.02814 289.66876 344.46564Q289.71564 344.73126 289.71564 345.4344L289.71564 346.84064Q289.71564 348.3094 289.77814 348.7Q289.85626 349.09064 290.0594 349.45L288.95 349.45Q288.79376 349.1219 288.7469 348.6844ZM288.65314 346.325Q288.075 346.5594 286.9344 346.73126Q286.27814 346.825 286.0125 346.95Q285.7469 347.0594 285.59064 347.27814Q285.45 347.4969 285.45 347.77814Q285.45 348.2 285.7625 348.48126Q286.09064 348.7625 286.7 348.7625Q287.3094 348.7625 287.77814 348.4969Q288.2625 348.23126 288.48126 347.7625Q288.65314 347.40314 288.65314 346.71564L288.65314 346.325ZM291.6844 349.45L291.6844 340.85626L292.73126 340.85626L292.73126 343.9344Q293.46564 343.09064 294.59064 343.09064Q295.29376 343.09064 295.79376 343.3719Q296.3094 343.6375 296.52814 344.1219Q296.7469 344.59064 296.7469 345.5125L296.7469 349.45L295.7 349.45L295.7 345.5125Q295.7 344.71564 295.35626 344.35626Q295.0125 343.9969 294.3875 343.9969Q293.91876 343.9969 293.4969 344.2469Q293.09064 344.48126 292.90314 344.90314Q292.73126 345.3094 292.73126 346.04376L292.73126 349.45L291.6844 349.45ZM298.66876 349.45L298.66876 343.23126L299.6219 343.23126L299.6219 344.16876Q299.98126 343.5125 300.27814 343.3094Q300.59064 343.09064 300.96564 343.09064Q301.4969 343.09064 302.04376 343.41876L301.6844 344.40314Q301.29376 344.16876 300.91876 344.16876Q300.5594 344.16876 300.27814 344.3875Q300.0125 344.59064 299.90314 344.96564Q299.71564 345.52814 299.71564 346.1844L299.71564 349.45L298.66876 349.45ZM302.6844 349.45L302.6844 340.85626L303.73126 340.85626L303.73126 343.9344Q304.46564 343.09064 305.59064 343.09064Q306.29376 343.09064 306.79376 343.3719Q307.3094 343.6375 307.52814 344.1219Q307.7469 344.59064 307.7469 345.5125L307.7469 349.45L306.7 349.45L306.7 345.5125Q306.7 344.71564 306.35626 344.35626Q306.0125 343.9969 305.3875 343.9969Q304.91876 343.9969 304.4969 344.2469Q304.09064 344.48126 303.90314 344.90314Q303.73126 345.3094 303.73126 346.04376L303.73126 349.45L302.6844 349.45ZM313.7625 349.45L313.7625 348.52814Q313.02814 349.59064 311.77814 349.59064Q311.23126 349.59064 310.7469 349.3875Q310.27814 349.16876 310.04376 348.85626Q309.8094 348.52814 309.71564 348.0594Q309.65314 347.7625 309.65314 347.075L309.65314 343.23126L310.71564 343.23126L310.71564 346.6844Q310.71564 347.4969 310.77814 347.79376Q310.8719 348.2 311.1844 348.45Q311.5125 348.6844 311.9969 348.6844Q312.46564 348.6844 312.8719 348.45Q313.29376 348.2 313.46564 347.77814Q313.65314 347.35626 313.65314 346.5594L313.65314 343.23126L314.7 343.23126L314.7 349.45L313.7625 349.45ZM316.6844 349.45L316.6844 343.23126L317.6219 343.23126L317.6219 344.10626Q318.3094 343.09064 319.60626 343.09064Q320.16876 343.09064 320.6375 343.29376Q321.1219 343.4969 321.35626 343.825Q321.59064 344.15314 321.6844 344.59064Q321.73126 344.8875 321.73126 345.6219L321.73126 349.45L320.6844 349.45L320.6844 345.66876Q320.6844 345.0125 320.5594 344.7Q320.4344 344.3875 320.1219 344.2Q319.8094 343.9969 319.3875 343.9969Q318.71564 343.9969 318.21564 344.4344Q317.73126 344.85626 317.73126 346.04376L317.73126 349.45L316.6844 349.45ZM327.71564 349.45L327.71564 348.66876Q327.1219 349.59064 325.98126 349.59064Q325.23126 349.59064 324.60626 349.1844Q323.98126 348.7625 323.6375 348.02814Q323.29376 347.29376 323.29376 346.34064Q323.29376 345.41876 323.60626 344.65314Q323.91876 343.8875 324.54376 343.4969Q325.16876 343.09064 325.9344 343.09064Q326.4969 343.09064 326.9344 343.325Q327.3719 343.5594 327.65314 343.9344L327.65314 340.85626L328.7 340.85626L328.7 349.45L327.71564 349.45ZM324.3875 346.34064Q324.3875 347.54376 324.8875 348.1375Q325.3875 348.71564 326.075 348.71564Q326.7625 348.71564 327.2469 348.15314Q327.73126 347.59064 327.73126 346.4344Q327.73126 345.15314 327.23126 344.5594Q326.7469 343.96564 326.02814 343.96564Q325.325 343.96564 324.85626 344.54376Q324.3875 345.10626 324.3875 346.34064ZM334.9344 347.45L336.02814 347.575Q335.77814 348.52814 335.075 349.0594Q334.3719 349.59064 333.29376 349.59064Q331.9344 349.59064 331.1219 348.7469Q330.325 347.90314 330.325 346.3875Q330.325 344.825 331.1375 343.96564Q331.95 343.09064 333.23126 343.09064Q334.48126 343.09064 335.2625 343.9344Q336.0594 344.77814 336.0594 346.325Q336.0594 346.41876 336.0594 346.60626L331.41876 346.60626Q331.48126 347.6375 331.9969 348.1844Q332.5125 348.71564 333.29376 348.71564Q333.8719 348.71564 334.27814 348.41876Q334.7 348.10626 334.9344 347.45ZM331.48126 345.7469L334.95 345.7469Q334.8875 344.95 334.5594 344.5594Q334.04376 343.95 333.2469 343.95Q332.5125 343.95 332.0125 344.4344Q331.52814 344.91876 331.48126 345.7469ZM337.66876 349.45L337.66876 343.23126L338.6219 343.23126L338.6219 344.16876Q338.98126 343.5125 339.27814 343.3094Q339.59064 343.09064 339.96564 343.09064Q340.4969 343.09064 341.04376 343.41876L340.6844 344.40314Q340.29376 344.16876 339.91876 344.16876Q339.5594 344.16876 339.27814 344.3875Q339.0125 344.59064 338.90314 344.96564Q338.71564 345.52814 338.71564 346.1844L338.71564 349.45L337.66876 349.45ZM343.98126 348.5125L344.1375 349.4344Q343.6844 349.52814 343.34064 349.52814Q342.7625 349.52814 342.45 349.35626Q342.1375 349.16876 341.9969 348.8719Q341.8719 348.575 341.8719 347.6219L341.8719 344.04376L341.10626 344.04376L341.10626 343.23126L341.8719 343.23126L341.8719 341.6844L342.91876 341.0594L342.91876 343.23126L343.98126 343.23126L343.98126 344.04376L342.91876 344.04376L342.91876 347.6844Q342.91876 348.1375 342.96564 348.2625Q343.02814 348.3875 343.15314 348.46564Q343.27814 348.54376 343.5125 348.54376Q343.7 348.54376 343.98126 348.5125Z" fill-rule="nonzero"/><path fill="#000000" d="M434.15936 348.4344L434.15936 349.45L428.47186 349.45Q428.47186 349.075 428.59686 348.71564Q428.8156 348.1375 429.28436 347.575Q429.76874 347.0125 430.675 346.27814Q432.08124 345.1219 432.5656 344.45Q433.0656 343.77814 433.0656 343.1844Q433.0656 342.5594 432.6125 342.1375Q432.15936 341.7 431.4406 341.7Q430.675 341.7 430.22186 342.15314Q429.76874 342.60626 429.7531 343.41876L428.675 343.3094Q428.78436 342.09064 429.5031 341.46564Q430.2375 340.825 431.47186 340.825Q432.70624 340.825 433.425 341.5125Q434.14374 342.2 434.14374 343.21564Q434.14374 343.73126 433.925 344.23126Q433.72186 344.71564 433.22186 345.27814Q432.7375 345.825 431.6125 346.77814Q430.65936 347.575 430.3781 347.8719Q430.1125 348.15314 429.9406 348.4344L434.15936 348.4344ZM435.6125 345.21564Q435.6125 343.6844 435.925 342.7625Q436.2375 341.825 436.84686 341.325Q437.47186 340.825 438.40936 340.825Q439.09686 340.825 439.6125 341.10626Q440.14374 341.3875 440.4875 341.91876Q440.83124 342.4344 441.01874 343.1844Q441.20624 343.9344 441.20624 345.21564Q441.20624 346.73126 440.89374 347.65314Q440.59686 348.575 439.97186 349.09064Q439.3625 349.59064 438.40936 349.59064Q437.175 349.59064 436.45624 348.7Q435.6125 347.6375 435.6125 345.21564ZM436.6906 345.21564Q436.6906 347.325 437.1906 348.02814Q437.6906 348.73126 438.40936 348.73126Q439.14374 348.73126 439.6281 348.02814Q440.1281 347.325 440.1281 345.21564Q440.1281 343.09064 439.6281 342.40314Q439.14374 341.7 438.39374 341.7Q437.675 341.7 437.2375 342.3094Q436.6906 343.09064 436.6906 345.21564ZM443.20624 349.45L443.20624 348.2469L444.40936 348.2469L444.40936 349.45L443.20624 349.45ZM448.45624 347.0125L449.4875 346.8719Q449.51874 347.85626 449.84686 348.21564Q450.175 348.575 450.76874 348.575Q451.1906 348.575 451.5031 348.3875Q451.8156 348.1844 451.925 347.85626Q452.05 347.5125 452.05 346.77814L452.05 340.85626L453.175 340.85626L453.175 346.71564Q453.175 347.79376 452.90936 348.3875Q452.65936 348.98126 452.09686 349.29376Q451.53436 349.59064 450.76874 349.59064Q449.64374 349.59064 449.03436 348.95Q448.4406 348.29376 448.45624 347.0125ZM458.97186 348.6844Q458.3781 349.1844 457.83124 349.3875Q457.3 349.59064 456.675 349.59064Q455.64374 349.59064 455.09686 349.09064Q454.55 348.59064 454.55 347.8094Q454.55 347.35626 454.7531 346.98126Q454.95624 346.59064 455.3 346.3719Q455.64374 346.1375 456.0656 346.02814Q456.3625 345.9344 457.0031 345.85626Q458.26874 345.71564 458.8781 345.4969Q458.8781 345.27814 458.8781 345.23126Q458.8781 344.575 458.58124 344.3094Q458.175 343.96564 457.3781 343.96564Q456.64374 343.96564 456.28436 344.23126Q455.925 344.48126 455.7531 345.1375L454.72186 344.9969Q454.8625 344.34064 455.1906 343.9344Q455.51874 343.52814 456.1281 343.3094Q456.7375 343.09064 457.53436 343.09064Q458.33124 343.09064 458.83124 343.27814Q459.33124 343.46564 459.5656 343.7469Q459.8 344.02814 459.89374 344.46564Q459.9406 344.73126 459.9406 345.4344L459.9406 346.84064Q459.9406 348.3094 460.0031 348.7Q460.08124 349.09064 460.28436 349.45L459.175 349.45Q459.01874 349.1219 458.97186 348.6844ZM458.8781 346.325Q458.3 346.5594 457.15936 346.73126Q456.5031 346.825 456.2375 346.95Q455.97186 347.0594 455.8156 347.27814Q455.675 347.4969 455.675 347.77814Q455.675 348.2 455.9875 348.48126Q456.3156 348.7625 456.925 348.7625Q457.53436 348.7625 458.0031 348.4969Q458.4875 348.23126 458.70624 347.7625Q458.8781 347.40314 458.8781 346.71564L458.8781 346.325ZM461.90936 349.45L461.90936 340.85626L462.95624 340.85626L462.95624 343.9344Q463.6906 343.09064 464.8156 343.09064Q465.51874 343.09064 466.01874 343.3719Q466.53436 343.6375 466.7531 344.1219Q466.97186 344.59064 466.97186 345.5125L466.97186 349.45L465.925 349.45L465.925 345.5125Q465.925 344.71564 465.58124 344.35626Q465.2375 343.9969 464.6125 343.9969Q464.14374 343.9969 463.72186 344.2469Q463.3156 344.48126 463.1281 344.90314Q462.95624 345.3094 462.95624 346.04376L462.95624 349.45L461.90936 349.45ZM468.89374 349.45L468.89374 343.23126L469.84686 343.23126L469.84686 344.16876Q470.20624 343.5125 470.5031 343.3094Q470.8156 343.09064 471.1906 343.09064Q471.72186 343.09064 472.26874 343.41876L471.90936 344.40314Q471.51874 344.16876 471.14374 344.16876Q470.78436 344.16876 470.5031 344.3875Q470.2375 344.59064 470.1281 344.96564Q469.9406 345.52814 469.9406 346.1844L469.9406 349.45L468.89374 349.45ZM472.90936 349.45L472.90936 340.85626L473.95624 340.85626L473.95624 343.9344Q474.6906 343.09064 475.8156 343.09064Q476.51874 343.09064 477.01874 343.3719Q477.53436 343.6375 477.7531 344.1219Q477.97186 344.59064 477.97186 345.5125L477.97186 349.45L476.925 349.45L476.925 345.5125Q476.925 344.71564 476.58124 344.35626Q476.2375 343.9969 475.6125 343.9969Q475.14374 343.9969 474.72186 344.2469Q474.3156 344.48126 474.1281 344.90314Q473.95624 345.3094 473.95624 346.04376L473.95624 349.45L472.90936 349.45ZM483.9875 349.45L483.9875 348.52814Q483.2531 349.59064 482.0031 349.59064Q481.45624 349.59064 480.97186 349.3875Q480.5031 349.16876 480.26874 348.85626Q480.03436 348.52814 479.9406 348.0594Q479.8781 347.7625 479.8781 347.075L479.8781 343.23126L480.9406 343.23126L480.9406 346.6844Q480.9406 347.4969 481.0031 347.79376Q481.09686 348.2 481.40936 348.45Q481.7375 348.6844 482.22186 348.6844Q482.6906 348.6844 483.09686 348.45Q483.51874 348.2 483.6906 347.77814Q483.8781 347.35626 483.8781 346.5594L483.8781 343.23126L484.925 343.23126L484.925 349.45L483.9875 349.45ZM486.90936 349.45L486.90936 343.23126L487.84686 343.23126L487.84686 344.10626Q488.53436 343.09064 489.83124 343.09064Q490.39374 343.09064 490.8625 343.29376Q491.34686 343.4969 491.58124 343.825Q491.8156 344.15314 491.90936 344.59064Q491.95624 344.8875 491.95624 345.6219L491.95624 349.45L490.90936 349.45L490.90936 345.66876Q490.90936 345.0125 490.78436 344.7Q490.65936 344.3875 490.34686 344.2Q490.03436 343.9969 489.6125 343.9969Q488.9406 343.9969 488.4406 344.4344Q487.95624 344.85626 487.95624 346.04376L487.95624 349.45L486.90936 349.45ZM497.9406 349.45L497.9406 348.66876Q497.34686 349.59064 496.20624 349.59064Q495.45624 349.59064 494.83124 349.1844Q494.20624 348.7625 493.8625 348.02814Q493.51874 347.29376 493.51874 346.34064Q493.51874 345.41876 493.83124 344.65314Q494.14374 343.8875 494.76874 343.4969Q495.39374 343.09064 496.15936 343.09064Q496.72186 343.09064 497.15936 343.325Q497.59686 343.5594 497.8781 343.9344L497.8781 340.85626L498.925 340.85626L498.925 349.45L497.9406 349.45ZM494.6125 346.34064Q494.6125 347.54376 495.1125 348.1375Q495.6125 348.71564 496.3 348.71564Q496.9875 348.71564 497.47186 348.15314Q497.95624 347.59064 497.95624 346.4344Q497.95624 345.15314 497.45624 344.5594Q496.97186 343.96564 496.2531 343.96564Q495.55 343.96564 495.08124 344.54376Q494.6125 345.10626 494.6125 346.34064ZM505.15936 347.45L506.2531 347.575Q506.0031 348.52814 505.3 349.0594Q504.59686 349.59064 503.51874 349.59064Q502.15936 349.59064 501.34686 348.7469Q500.55 347.90314 500.55 346.3875Q500.55 344.825 501.3625 343.96564Q502.175 343.09064 503.45624 343.09064Q504.70624 343.09064 505.4875 343.9344Q506.28436 344.77814 506.28436 346.325Q506.28436 346.41876 506.28436 346.60626L501.64374 346.60626Q501.70624 347.6375 502.22186 348.1844Q502.7375 348.71564 503.51874 348.71564Q504.09686 348.71564 504.5031 348.41876Q504.925 348.10626 505.15936 347.45ZM501.70624 345.7469L505.175 345.7469Q505.1125 344.95 504.78436 344.5594Q504.26874 343.95 503.47186 343.95Q502.7375 343.95 502.2375 344.4344Q501.7531 344.91876 501.70624 345.7469ZM507.89374 349.45L507.89374 343.23126L508.84686 343.23126L508.84686 344.16876Q509.20624 343.5125 509.5031 343.3094Q509.8156 343.09064 510.1906 343.09064Q510.72186 343.09064 511.26874 343.41876L510.90936 344.40314Q510.51874 344.16876 510.14374 344.16876Q509.78436 344.16876 509.5031 344.3875Q509.2375 344.59064 509.1281 344.96564Q508.9406 345.52814 508.9406 346.1844L508.9406 349.45L507.89374 349.45ZM514.20624 348.5125L514.3625 349.4344Q513.90936 349.52814 513.5656 349.52814Q512.9875 349.52814 512.675 349.35626Q512.3625 349.16876 512.22186 348.8719Q512.09686 348.575 512.09686 347.6219L512.09686 344.04376L511.33124 344.04376L511.33124 343.23126L512.09686 343.23126L512.09686 341.6844L513.14374 341.0594L513.14374 343.23126L514.20624 343.23126L514.20624 344.04376L513.14374 344.04376L513.14374 347.6844Q513.14374 348.1375 513.1906 348.2625Q513.2531 348.3875 513.3781 348.46564Q513.5031 348.54376 513.7375 348.54376Q513.925 348.54376 514.20624 348.5125Z" fill-rule="nonzero"/><path fill="#000000" d="M604.3844 348.4344L604.3844 349.45L598.6969 349.45Q598.6969 349.075 598.8219 348.71564Q599.04065 348.1375 599.5094 347.575Q599.9938 347.0125 600.9 346.27814Q602.3063 345.1219 602.79065 344.45Q603.29065 343.77814 603.29065 343.1844Q603.29065 342.5594 602.8375 342.1375Q602.3844 341.7 601.66565 341.7Q600.9 341.7 600.4469 342.15314Q599.9938 342.60626 599.97815 343.41876L598.9 343.3094Q599.0094 342.09064 599.72815 341.46564Q600.4625 340.825 601.6969 340.825Q602.9313 340.825 603.65 341.5125Q604.3688 342.2 604.3688 343.21564Q604.3688 343.73126 604.15 344.23126Q603.9469 344.71564 603.4469 345.27814Q602.9625 345.825 601.8375 346.77814Q600.8844 347.575 600.60315 347.8719Q600.3375 348.15314 600.16565 348.4344L604.3844 348.4344ZM609.8063 349.45L608.7594 349.45L608.7594 342.73126Q608.3688 343.09064 607.7438 343.46564Q607.1344 343.825 606.65 343.9969L606.65 342.98126Q607.525 342.5594 608.1813 341.98126Q608.85315 341.3875 609.1344 340.825L609.8063 340.825L609.8063 349.45ZM613.4313 349.45L613.4313 348.2469L614.6344 348.2469L614.6344 349.45L613.4313 349.45ZM618.6813 347.0125L619.7125 346.8719Q619.7438 347.85626 620.0719 348.21564Q620.4 348.575 620.9938 348.575Q621.41565 348.575 621.72815 348.3875Q622.04065 348.1844 622.15 347.85626Q622.275 347.5125 622.275 346.77814L622.275 340.85626L623.4 340.85626L623.4 346.71564Q623.4 347.79376 623.1344 348.3875Q622.8844 348.98126 622.3219 349.29376Q621.7594 349.59064 620.9938 349.59064Q619.8688 349.59064 619.2594 348.95Q618.66565 348.29376 618.6813 347.0125ZM629.1969 348.6844Q628.60315 349.1844 628.0563 349.3875Q627.525 349.59064 626.9 349.59064Q625.8688 349.59064 625.3219 349.09064Q624.775 348.59064 624.775 347.8094Q624.775 347.35626 624.97815 346.98126Q625.1813 346.59064 625.525 346.3719Q625.8688 346.1375 626.29065 346.02814Q626.5875 345.9344 627.22815 345.85626Q628.4938 345.71564 629.10315 345.4969Q629.10315 345.27814 629.10315 345.23126Q629.10315 344.575 628.8063 344.3094Q628.4 343.96564 627.60315 343.96564Q626.8688 343.96564 626.5094 344.23126Q626.15 344.48126 625.97815 345.1375L624.9469 344.9969Q625.0875 344.34064 625.41565 343.9344Q625.7438 343.52814 626.35315 343.3094Q626.9625 343.09064 627.7594 343.09064Q628.5563 343.09064 629.0563 343.27814Q629.5563 343.46564 629.79065 343.7469Q630.025 344.02814 630.1188 344.46564Q630.16565 344.73126 630.16565 345.4344L630.16565 346.84064Q630.16565 348.3094 630.22815 348.7Q630.3063 349.09064 630.5094 349.45L629.4 349.45Q629.2438 349.1219 629.1969 348.6844ZM629.10315 346.325Q628.525 346.5594 627.3844 346.73126Q626.72815 346.825 626.4625 346.95Q626.1969 347.0594 626.04065 347.27814Q625.9 347.4969 625.9 347.77814Q625.9 348.2 626.2125 348.48126Q626.54065 348.7625 627.15 348.7625Q627.7594 348.7625 628.22815 348.4969Q628.7125 348.23126 628.9313 347.7625Q629.10315 347.40314 629.10315 346.71564L629.10315 346.325ZM632.1344 349.45L632.1344 340.85626L633.1813 340.85626L633.1813 343.9344Q633.91565 343.09064 635.04065 343.09064Q635.7438 343.09064 636.2438 343.3719Q636.7594 343.6375 636.97815 344.1219Q637.1969 344.59064 637.1969 345.5125L637.1969 349.45L636.15 349.45L636.15 345.5125Q636.15 344.71564 635.8063 344.35626Q635.4625 343.9969 634.8375 343.9969Q634.3688 343.9969 633.9469 344.2469Q633.54065 344.48126 633.35315 344.90314Q633.1813 345.3094 633.1813 346.04376L633.1813 349.45L632.1344 349.45ZM639.1188 349.45L639.1188 343.23126L640.0719 343.23126L640.0719 344.16876Q640.4313 343.5125 640.72815 343.3094Q641.04065 343.09064 641.41565 343.09064Q641.9469 343.09064 642.4938 343.41876L642.1344 344.40314Q641.7438 344.16876 641.3688 344.16876Q641.0094 344.16876 640.72815 344.3875Q640.4625 344.59064 640.35315 344.96564Q640.16565 345.52814 640.16565 346.1844L640.16565 349.45L639.1188 349.45ZM643.1344 349.45L643.1344 340.85626L644.1813 340.85626L644.1813 343.9344Q644.91565 343.09064 646.04065 343.09064Q646.7438 343.09064 647.2438 343.3719Q647.7594 343.6375 647.97815 344.1219Q648.1969 344.59064 648.1969 345.5125L648.1969 349.45L647.15 349.45L647.15 345.5125Q647.15 344.71564 646.8063 344.35626Q646.4625 343.9969 645.8375 343.9969Q645.3688 343.9969 644.9469 344.2469Q644.54065 344.48126 644.35315 344.90314Q644.1813 345.3094 644.1813 346.04376L644.1813 349.45L643.1344 349.45ZM654.2125 349.45L654.2125 348.52814Q653.47815 349.59064 652.22815 349.59064Q651.6813 349.59064 651.1969 349.3875Q650.72815 349.16876 650.4938 348.85626Q650.2594 348.52814 650.16565 348.0594Q650.10315 347.7625 650.10315 347.075L650.10315 343.23126L651.16565 343.23126L651.16565 346.6844Q651.16565 347.4969 651.22815 347.79376Q651.3219 348.2 651.6344 348.45Q651.9625 348.6844 652.4469 348.6844Q652.91565 348.6844 653.3219 348.45Q653.7438 348.2 653.91565 347.77814Q654.10315 347.35626 654.10315 346.5594L654.10315 343.23126L655.15 343.23126L655.15 349.45L654.2125 349.45ZM657.1344 349.45L657.1344 343.23126L658.0719 343.23126L658.0719 344.10626Q658.7594 343.09064 660.0563 343.09064Q660.6188 343.09064 661.0875 343.29376Q661.5719 343.4969 661.8063 343.825Q662.04065 344.15314 662.1344 344.59064Q662.1813 344.8875 662.1813 345.6219L662.1813 349.45L661.1344 349.45L661.1344 345.66876Q661.1344 345.0125 661.0094 344.7Q660.8844 344.3875 660.5719 344.2Q660.2594 343.9969 659.8375 343.9969Q659.16565 343.9969 658.66565 344.4344Q658.1813 344.85626 658.1813 346.04376L658.1813 349.45L657.1344 349.45ZM668.16565 349.45L668.16565 348.66876Q667.5719 349.59064 666.4313 349.59064Q665.6813 349.59064 665.0563 349.1844Q664.4313 348.7625 664.0875 348.02814Q663.7438 347.29376 663.7438 346.34064Q663.7438 345.41876 664.0563 344.65314Q664.3688 343.8875 664.9938 343.4969Q665.6188 343.09064 666.3844 343.09064Q666.9469 343.09064 667.3844 343.325Q667.8219 343.5594 668.10315 343.9344L668.10315 340.85626L669.15 340.85626L669.15 349.45L668.16565 349.45ZM664.8375 346.34064Q664.8375 347.54376 665.3375 348.1375Q665.8375 348.71564 666.525 348.71564Q667.2125 348.71564 667.6969 348.15314Q668.1813 347.59064 668.1813 346.4344Q668.1813 345.15314 667.6813 344.5594Q667.1969 343.96564 666.47815 343.96564Q665.775 343.96564 665.3063 344.54376Q664.8375 345.10626 664.8375 346.34064ZM675.3844 347.45L676.47815 347.575Q676.22815 348.52814 675.525 349.0594Q674.8219 349.59064 673.7438 349.59064Q672.3844 349.59064 671.5719 348.7469Q670.775 347.90314 670.775 346.3875Q670.775 344.825 671.5875 343.96564Q672.4 343.09064 673.6813 343.09064Q674.9313 343.09064 675.7125 343.9344Q676.5094 344.77814 676.5094 346.325Q676.5094 346.41876 676.5094 346.60626L671.8688 346.60626Q671.9313 347.6375 672.4469 348.1844Q672.9625 348.71564 673.7438 348.71564Q674.3219 348.71564 674.72815 348.41876Q675.15 348.10626 675.3844 347.45ZM671.9313 345.7469L675.4 345.7469Q675.3375 344.95 675.0094 344.5594Q674.4938 343.95 673.6969 343.95Q672.9625 343.95 672.4625 344.4344Q671.97815 344.91876 671.9313 345.7469ZM678.1188 349.45L678.1188 343.23126L679.0719 343.23126L679.0719 344.16876Q679.4313 343.5125 679.72815 343.3094Q680.04065 343.09064 680.41565 343.09064Q680.9469 343.09064 681.4938 343.41876L681.1344 344.40314Q680.7438 344.16876 680.3688 344.16876Q680.0094 344.16876 679.72815 344.3875Q679.4625 344.59064 679.35315 344.96564Q679.16565 345.52814 679.16565 346.1844L679.16565 349.45L678.1188 349.45ZM684.4313 348.5125L684.5875 349.4344Q684.1344 349.52814 683.79065 349.52814Q683.2125 349.52814 682.9 349.35626Q682.5875 349.16876 682.4469 348.8719Q682.3219 348.575 682.3219 347.6219L682.3219 344.04376L681.5563 344.04376L681.5563 343.23126L682.3219 343.23126L682.3219 341.6844L683.3688 341.0594L683.3688 343.23126L684.4313 343.23126L684.4313 344.04376L683.3688 344.04376L683.3688 347.6844Q683.3688 348.1375 683.41565 348.2625Q683.47815 348.3875 683.60315 348.46564Q683.72815 348.54376 683.9625 348.54376Q684.15 348.54376 684.4313 348.5125Z" fill-rule="nonzero"/><path stroke="#695656" stroke-width="4.0" stroke-linecap="butt" d="M44.5 25.55L56.5 25.55" fill-rule="nonzero"/><path fill="#1a1a1a" d="M65.265625 29.55L65.265625 20.95625L66.328125 20.95625L66.328125 29.55L65.265625 29.55ZM72.359375 28.784374Q71.765625 29.284374 71.21875 29.4875Q70.6875 29.690624 70.0625 29.690624Q69.03125 29.690624 68.484375 29.190624Q67.9375 28.690624 67.9375 27.909374Q67.9375 27.45625 68.140625 27.08125Q68.34375 26.690624 68.6875 26.471874Q69.03125 26.2375 69.453125 26.128124Q69.75 26.034374 70.390625 25.95625Q71.65625 25.815624 72.265625 25.596874Q72.265625 25.378124 72.265625 25.33125Q72.265625 24.675 71.96875 24.409374Q71.5625 24.065624 70.765625 24.065624Q70.03125 24.065624 69.671875 24.33125Q69.3125 24.58125 69.140625 25.2375L68.109375 25.096874Q68.25 24.440624 68.578125 24.034374Q68.90625 23.628124 69.515625 23.409374Q70.125 23.190624 70.921875 23.190624Q71.71875 23.190624 72.21875 23.378124Q72.71875 23.565624 72.953125 23.846874Q73.1875 24.128124 73.28125 24.565624Q73.328125 24.83125 73.328125 25.534374L73.328125 26.940624Q73.328125 28.409374 73.390625 28.8Q73.46875 29.190624 73.671875 29.55L72.5625 29.55Q72.40625 29.221874 72.359375 28.784374ZM72.265625 26.425Q71.6875 26.659374 70.546875 26.83125Q69.890625 26.925 69.625 27.05Q69.359375 27.159374 69.203125 27.378124Q69.0625 27.596874 69.0625 27.878124Q69.0625 28.3 69.375 28.58125Q69.703125 28.8625 70.3125 28.8625Q70.921875 28.8625 71.390625 28.596874Q71.875 28.33125 72.09375 27.8625Q72.265625 27.503124 72.265625 26.815624L72.265625 26.425ZM75.4375 29.55L75.4375 20.95625L79.25 20.95625Q80.40625 20.95625 81.0 21.190624Q81.59375 21.425 81.953125 22.01875Q82.3125 22.596874 82.3125 23.3Q82.3125 24.221874 81.71875 24.846874Q81.125 25.471874 79.890625 25.64375Q80.34375 25.8625 80.578125 26.065624Q81.078125 26.51875 81.515625 27.20625L83.015625 29.55L81.578125 29.55L80.453125 27.76875Q79.953125 26.9875 79.625 26.58125Q79.3125 26.175 79.046875 26.01875Q78.796875 25.846874 78.53125 25.76875Q78.34375 25.7375 77.90625 25.7375L76.578125 25.7375L76.578125 29.55L75.4375 29.55ZM76.578125 24.753124L79.03125 24.753124Q79.796875 24.753124 80.234375 24.596874Q80.6875 24.425 80.90625 24.08125Q81.140625 23.721874 81.140625 23.3Q81.140625 22.690624 80.6875 22.3Q80.25 21.909374 79.296875 21.909374L76.578125 21.909374L76.578125 24.753124ZM88.359375 28.784374Q87.765625 29.284374 87.21875 29.4875Q86.6875 29.690624 86.0625 29.690624Q85.03125 29.690624 84.484375 29.190624Q83.9375 28.690624 83.9375 27.909374Q83.9375 27.45625 84.140625 27.08125Q84.34375 26.690624 84.6875 26.471874Q85.03125 26.2375 85.453125 26.128124Q85.75 26.034374 86.390625 25.95625Q87.65625 25.815624 88.265625 25.596874Q88.265625 25.378124 88.265625 25.33125Q88.265625 24.675 87.96875 24.409374Q87.5625 24.065624 86.765625 24.065624Q86.03125 24.065624 85.671875 24.33125Q85.3125 24.58125 85.140625 25.2375L84.109375 25.096874Q84.25 24.440624 84.578125 24.034374Q84.90625 23.628124 85.515625 23.409374Q86.125 23.190624 86.921875 23.190624Q87.71875 23.190624 88.21875 23.378124Q88.71875 23.565624 88.953125 23.846874Q89.1875 24.128124 89.28125 24.565624Q89.328125 24.83125 89.328125 25.534374L89.328125 26.940624Q89.328125 28.409374 89.390625 28.8Q89.46875 29.190624 89.671875 29.55L88.5625 29.55Q88.40625 29.221874 88.359375 28.784374ZM88.265625 26.425Q87.6875 26.659374 86.546875 26.83125Q85.890625 26.925 85.625 27.05Q85.359375 27.159374 85.203125 27.378124Q85.0625 27.596874 85.0625 27.878124Q85.0625 28.3 85.375 28.58125Q85.703125 28.8625 86.3125 28.8625Q86.921875 28.8625 87.390625 28.596874Q87.875 28.33125 88.09375 27.8625Q88.265625 27.503124 88.265625 26.815624L88.265625 26.425ZM96.3125 32.08125Q95.4375 30.971874 94.828125 29.503124Q94.234375 28.01875 94.234375 26.440624Q94.234375 25.05 94.671875 23.76875Q95.203125 22.284374 96.3125 20.815624L97.0625 20.815624Q96.359375 22.034374 96.125 22.55Q95.765625 23.3625 95.5625 24.2375Q95.3125 25.33125 95.3125 26.440624Q95.3125 29.26875 97.0625 32.08125L96.3125 32.08125ZM100.609375 29.55L100.609375 21.971874L97.78125 21.971874L97.78125 20.95625L104.59375 20.95625L104.59375 21.971874L101.75 21.971874L101.75 29.55L100.609375 29.55ZM109.546875 27.55L110.640625 27.675Q110.390625 28.628124 109.6875 29.159374Q108.984375 29.690624 107.90625 29.690624Q106.546875 29.690624 105.734375 28.846874Q104.9375 28.003124 104.9375 26.4875Q104.9375 24.925 105.75 24.065624Q106.5625 23.190624 107.84375 23.190624Q109.09375 23.190624 109.875 24.034374Q110.671875 24.878124 110.671875 26.425Q110.671875 26.51875 110.671875 26.70625L106.03125 26.70625Q106.09375 27.7375 106.609375 28.284374Q107.125 28.815624 107.90625 28.815624Q108.484375 28.815624 108.890625 28.51875Q109.3125 28.20625 109.546875 27.55ZM106.09375 25.846874L109.5625 25.846874Q109.5 25.05 109.171875 24.659374Q108.65625 24.05 107.859375 24.05Q107.125 24.05 106.625 24.534374Q106.140625 25.01875 106.09375 25.846874ZM111.59375 29.55L113.859375 26.315624L111.765625 23.33125L113.078125 23.33125L114.03125 24.784374Q114.296875 25.20625 114.46875 25.4875Q114.71875 25.096874 114.9375 24.8L115.984375 23.33125L117.25 23.33125L115.09375 26.253124L117.40625 29.55L116.125 29.55L114.84375 27.6125L114.5 27.096874L112.859375 29.55L111.59375 29.55ZM119.59375 28.6125L119.75 29.534374Q119.296875 29.628124 118.953125 29.628124Q118.375 29.628124 118.0625 29.45625Q117.75 29.26875 117.609375 28.971874Q117.484375 28.675 117.484375 27.721874L117.484375 24.14375L116.71875 24.14375L116.71875 23.33125L117.484375 23.33125L117.484375 21.784374L118.53125 21.159374L118.53125 23.33125L119.59375 23.33125L119.59375 24.14375L118.53125 24.14375L118.53125 27.784374Q118.53125 28.2375 118.578125 28.3625Q118.640625 28.4875 118.765625 28.565624Q118.890625 28.64375 119.125 28.64375Q119.3125 28.64375 119.59375 28.6125ZM124.359375 28.784374Q123.765625 29.284374 123.21875 29.4875Q122.6875 29.690624 122.0625 29.690624Q121.03125 29.690624 120.484375 29.190624Q119.9375 28.690624 119.9375 27.909374Q119.9375 27.45625 120.140625 27.08125Q120.34375 26.690624 120.6875 26.471874Q121.03125 26.2375 121.453125 26.128124Q121.75 26.034374 122.390625 25.95625Q123.65625 25.815624 124.265625 25.596874Q124.265625 25.378124 124.265625 25.33125Q124.265625 24.675 123.96875 24.409374Q123.5625 24.065624 122.765625 24.065624Q122.03125 24.065624 121.671875 24.33125Q121.3125 24.58125 121.140625 25.2375L120.109375 25.096874Q120.25 24.440624 120.578125 24.034374Q120.90625 23.628124 121.515625 23.409374Q122.125 23.190624 122.921875 23.190624Q123.71875 23.190624 124.21875 23.378124Q124.71875 23.565624 124.953125 23.846874Q125.1875 24.128124 125.28125 24.565624Q125.328125 24.83125 125.328125 25.534374L125.328125 26.940624Q125.328125 28.409374 125.390625 28.8Q125.46875 29.190624 125.671875 29.55L124.5625 29.55Q124.40625 29.221874 124.359375 28.784374ZM124.265625 26.425Q123.6875 26.659374 122.546875 26.83125Q121.890625 26.925 121.625 27.05Q121.359375 27.159374 121.203125 27.378124Q121.0625 27.596874 121.0625 27.878124Q121.0625 28.3 121.375 28.58125Q121.703125 28.8625 122.3125 28.8625Q122.921875 28.8625 123.390625 28.596874Q123.875 28.33125 124.09375 27.8625Q124.265625 27.503124 124.265625 26.815624L124.265625 26.425ZM127.296875 29.55L127.296875 23.33125L128.23438 23.33125L128.23438 24.20625Q128.92188 23.190624 130.21875 23.190624Q130.78125 23.190624 131.25 23.39375Q131.73438 23.596874 131.96875 23.925Q132.20312 24.253124 132.29688 24.690624Q132.34375 24.9875 132.34375 25.721874L132.34375 29.55L131.29688 29.55L131.29688 25.76875Q131.29688 25.1125 131.17188 24.8Q131.04688 24.4875 130.73438 24.3Q130.42188 24.096874 130.0 24.096874Q129.32812 24.096874 128.82812 24.534374Q128.34375 24.95625 128.34375 26.14375L128.34375 29.55L127.296875 29.55ZM133.73438 29.55L133.73438 28.690624L137.70312 24.14375Q137.01562 24.175 136.5 24.175L133.96875 24.175L133.96875 23.33125L139.0625 23.33125L139.0625 24.01875L135.6875 27.971874L135.03125 28.690624Q135.75 28.64375 136.35938 28.64375L139.25 28.64375L139.25 29.55L133.73438 29.55ZM143.35938 28.784374Q142.76562 29.284374 142.21875 29.4875Q141.6875 29.690624 141.0625 29.690624Q140.03125 29.690624 139.48438 29.190624Q138.9375 28.690624 138.9375 27.909374Q138.9375 27.45625 139.14062 27.08125Q139.34375 26.690624 139.6875 26.471874Q140.03125 26.2375 140.45312 26.128124Q140.75 26.034374 141.39062 25.95625Q142.65625 25.815624 143.26562 25.596874Q143.26562 25.378124 143.26562 25.33125Q143.26562 24.675 142.96875 24.409374Q142.5625 24.065624 141.76562 24.065624Q141.03125 24.065624 140.67188 24.33125Q140.3125 24.58125 140.14062 25.2375L139.10938 25.096874Q139.25 24.440624 139.57812 24.034374Q139.90625 23.628124 140.51562 23.409374Q141.125 23.190624 141.92188 23.190624Q142.71875 23.190624 143.21875 23.378124Q143.71875 23.565624 143.95312 23.846874Q144.1875 24.128124 144.28125 24.565624Q144.32812 24.83125 144.32812 25.534374L144.32812 26.940624Q144.32812 28.409374 144.39062 28.8Q144.46875 29.190624 144.67188 29.55L143.5625 29.55Q143.40625 29.221874 143.35938 28.784374ZM143.26562 26.425Q142.6875 26.659374 141.54688 26.83125Q140.89062 26.925 140.625 27.05Q140.35938 27.159374 140.20312 27.378124Q140.0625 27.596874 140.0625 27.878124Q140.0625 28.3 140.375 28.58125Q140.70312 28.8625 141.3125 28.8625Q141.92188 28.8625 142.39062 28.596874Q142.875 28.33125 143.09375 27.8625Q143.26562 27.503124 143.26562 26.815624L143.26562 26.425ZM146.29688 29.55L146.29688 20.95625L147.34375 20.95625L147.34375 24.034374Q148.07812 23.190624 149.20312 23.190624Q149.90625 23.190624 150.40625 23.471874Q150.92188 23.7375 151.14062 24.221874Q151.35938 24.690624 151.35938 25.6125L151.35938 29.55L150.3125 29.55L150.3125 25.6125Q150.3125 24.815624 149.96875 24.45625Q149.625 24.096874 149.0 24.096874Q148.53125 24.096874 148.10938 24.346874Q147.70312 24.58125 147.51562 25.003124Q147.34375 25.409374 147.34375 26.14375L147.34375 29.55L146.29688 29.55ZM153.26562 29.55L153.26562 20.95625L154.32812 20.95625L154.32812 29.55L153.26562 29.55ZM156.98438 32.08125L156.23438 32.08125Q157.98438 29.26875 157.98438 26.440624Q157.98438 25.346874 157.73438 24.253124Q157.53125 23.378124 157.17188 22.565624Q156.9375 22.05 156.23438 20.815624L156.98438 20.815624Q158.07812 22.284374 158.60938 23.76875Q159.0625 25.05 159.0625 26.440624Q159.0625 28.01875 158.45312 29.503124Q157.84375 30.971874 156.98438 32.08125Z" fill-rule="nonzero"/><path stroke="#f28585" stroke-width="4.0" stroke-linecap="butt" d="M175.5 25.55L187.5 25.55" fill-rule="nonzero"/><path fill="#1a1a1a" d="M196.26562 29.55L196.26562 20.95625L197.32812 20.95625L197.32812 29.55L196.26562 29.55ZM203.35938 28.784374Q202.76562 29.284374 202.21875 29.4875Q201.6875 29.690624 201.0625 29.690624Q200.03125 29.690624 199.48438 29.190624Q198.9375 28.690624 198.9375 27.909374Q198.9375 27.45625 199.14062 27.08125Q199.34375 26.690624 199.6875 26.471874Q200.03125 26.2375 200.45312 26.128124Q200.75 26.034374 201.39062 25.95625Q202.65625 25.815624 203.26562 25.596874Q203.26562 25.378124 203.26562 25.33125Q203.26562 24.675 202.96875 24.409374Q202.5625 24.065624 201.76562 24.065624Q201.03125 24.065624 200.67188 24.33125Q200.3125 24.58125 200.14062 25.2375L199.10938 25.096874Q199.25 24.440624 199.57812 24.034374Q199.90625 23.628124 200.51562 23.409374Q201.125 23.190624 201.92188 23.190624Q202.71875 23.190624 203.21875 23.378124Q203.71875 23.565624 203.95312 23.846874Q204.1875 24.128124 204.28125 24.565624Q204.32812 24.83125 204.32812 25.534374L204.32812 26.940624Q204.32812 28.409374 204.39062 28.8Q204.46875 29.190624 204.67188 29.55L203.5625 29.55Q203.40625 29.221874 203.35938 28.784374ZM203.26562 26.425Q202.6875 26.659374 201.54688 26.83125Q200.89062 26.925 200.625 27.05Q200.35938 27.159374 200.20312 27.378124Q200.0625 27.596874 200.0625 27.878124Q200.0625 28.3 200.375 28.58125Q200.70312 28.8625 201.3125 28.8625Q201.92188 28.8625 202.39062 28.596874Q202.875 28.33125 203.09375 27.8625Q203.26562 27.503124 203.26562 26.815624L203.26562 26.425ZM206.4375 29.55L206.4375 20.95625L210.25 20.95625Q211.40625 20.95625 212.0 21.190624Q212.59375 21.425 212.95312 22.01875Q213.3125 22.596874 213.3125 23.3Q213.3125 24.221874 212.71875 24.846874Q212.125 25.471874 210.89062 25.64375Q211.34375 25.8625 211.57812 26.065624Q212.07812 26.51875 212.51562 27.20625L214.01562 29.55L212.57812 29.55L211.45312 27.76875Q210.95312 26.9875 210.625 26.58125Q210.3125 26.175 210.04688 26.01875Q209.79688 25.846874 209.53125 25.76875Q209.34375 25.7375 208.90625 25.7375L207.57812 25.7375L207.57812 29.55L206.4375 29.55ZM207.57812 24.753124L210.03125 24.753124Q210.79688 24.753124 211.23438 24.596874Q211.6875 24.425 211.90625 24.08125Q212.14062 23.721874 212.14062 23.3Q212.14062 22.690624 211.6875 22.3Q211.25 21.909374 210.29688 21.909374L207.57812 21.909374L207.57812 24.753124ZM219.35938 28.784374Q218.76562 29.284374 218.21875 29.4875Q217.6875 29.690624 217.0625 29.690624Q216.03125 29.690624 215.48438 29.190624Q214.9375 28.690624 214.9375 27.909374Q214.9375 27.45625 215.14062 27.08125Q215.34375 26.690624 215.6875 26.471874Q216.03125 26.2375 216.45312 26.128124Q216.75 26.034374 217.39062 25.95625Q218.65625 25.815624 219.26562 25.596874Q219.26562 25.378124 219.26562 25.33125Q219.26562 24.675 218.96875 24.409374Q218.5625 24.065624 217.76562 24.065624Q217.03125 24.065624 216.67188 24.33125Q216.3125 24.58125 216.14062 25.2375L215.10938 25.096874Q215.25 24.440624 215.57812 24.034374Q215.90625 23.628124 216.51562 23.409374Q217.125 23.190624 217.92188 23.190624Q218.71875 23.190624 219.21875 23.378124Q219.71875 23.565624 219.95312 23.846874Q220.1875 24.128124 220.28125 24.565624Q220.32812 24.83125 220.32812 25.534374L220.32812 26.940624Q220.32812 28.409374 220.39062 28.8Q220.46875 29.190624 220.67188 29.55L219.5625 29.55Q219.40625 29.221874 219.35938 28.784374ZM219.26562 26.425Q218.6875 26.659374 217.54688 26.83125Q216.89062 26.925 216.625 27.05Q216.35938 27.159374 216.20312 27.378124Q216.0625 27.596874 216.0625 27.878124Q216.0625 28.3 216.375 28.58125Q216.70312 28.8625 217.3125 28.8625Q217.92188 28.8625 218.39062 28.596874Q218.875 28.33125 219.09375 27.8625Q219.26562 27.503124 219.26562 26.815624L219.26562 26.425ZM227.3125 32.08125Q226.4375 30.971874 225.82812 29.503124Q225.23438 28.01875 225.23438 26.440624Q225.23438 25.05 225.67188 23.76875Q226.20312 22.284374 227.3125 20.815624L228.0625 20.815624Q227.35938 22.034374 227.125 22.55Q226.76562 23.3625 226.5625 24.2375Q226.3125 25.33125 226.3125 26.440624Q226.3125 29.26875 228.0625 32.08125L227.3125 32.08125ZM231.875 29.55L228.54688 20.95625L229.78125 20.95625L232.01562 27.20625Q232.28125 27.95625 232.46875 28.6125Q232.67188 27.909374 232.9375 27.20625L235.25 20.95625L236.40625 20.95625L233.04688 29.55L231.875 29.55ZM240.35938 28.784374Q239.76562 29.284374 239.21875 29.4875Q238.6875 29.690624 238.0625 29.690624Q237.03125 29.690624 236.48438 29.190624Q235.9375 28.690624 235.9375 27.909374Q235.9375 27.45625 236.14062 27.08125Q236.34375 26.690624 236.6875 26.471874Q237.03125 26.2375 237.45312 26.128124Q237.75 26.034374 238.39062 25.95625Q239.65625 25.815624 240.26562 25.596874Q240.26562 25.378124 240.26562 25.33125Q240.26562 24.675 239.96875 24.409374Q239.5625 24.065624 238.76562 24.065624Q238.03125 24.065624 237.67188 24.33125Q237.3125 24.58125 237.14062 25.2375L236.10938 25.096874Q236.25 24.440624 236.57812 24.034374Q236.90625 23.628124 237.51562 23.409374Q238.125 23.190624 238.92188 23.190624Q239.71875 23.190624 240.21875 23.378124Q240.71875 23.565624 240.95312 23.846874Q241.1875 24.128124 241.28125 24.565624Q241.32812 24.83125 241.32812 25.534374L241.32812 26.940624Q241.32812 28.409374 241.39062 28.8Q241.46875 29.190624 241.67188 29.55L240.5625 29.55Q240.40625 29.221874 240.35938 28.784374ZM240.26562 26.425Q239.6875 26.659374 238.54688 26.83125Q237.89062 26.925 237.625 27.05Q237.35938 27.159374 237.20312 27.378124Q237.0625 27.596874 237.0625 27.878124Q237.0625 28.3 237.375 28.58125Q237.70312 28.8625 238.3125 28.8625Q238.92188 28.8625 239.39062 28.596874Q239.875 28.33125 240.09375 27.8625Q240.26562 27.503124 240.26562 26.815624L240.26562 26.425ZM243.28125 29.55L243.28125 23.33125L244.23438 23.33125L244.23438 24.26875Q244.59375 23.6125 244.89062 23.409374Q245.20312 23.190624 245.57812 23.190624Q246.10938 23.190624 246.65625 23.51875L246.29688 24.503124Q245.90625 24.26875 245.53125 24.26875Q245.17188 24.26875 244.89062 24.4875Q244.625 24.690624 244.51562 25.065624Q244.32812 25.628124 244.32812 26.284374L244.32812 29.55L243.28125 29.55ZM247.29688 22.175L247.29688 20.95625L248.35938 20.95625L248.35938 22.175L247.29688 22.175ZM247.29688 29.55L247.29688 23.33125L248.35938 23.33125L248.35938 29.55L247.29688 29.55ZM254.35938 28.784374Q253.76562 29.284374 253.21875 29.4875Q252.6875 29.690624 252.0625 29.690624Q251.03125 29.690624 250.48438 29.190624Q249.9375 28.690624 249.9375 27.909374Q249.9375 27.45625 250.14062 27.08125Q250.34375 26.690624 250.6875 26.471874Q251.03125 26.2375 251.45312 26.128124Q251.75 26.034374 252.39062 25.95625Q253.65625 25.815624 254.26562 25.596874Q254.26562 25.378124 254.26562 25.33125Q254.26562 24.675 253.96875 24.409374Q253.5625 24.065624 252.76562 24.065624Q252.03125 24.065624 251.67188 24.33125Q251.3125 24.58125 251.14062 25.2375L250.10938 25.096874Q250.25 24.440624 250.57812 24.034374Q250.90625 23.628124 251.51562 23.409374Q252.125 23.190624 252.92188 23.190624Q253.71875 23.190624 254.21875 23.378124Q254.71875 23.565624 254.95312 23.846874Q255.1875 24.128124 255.28125 24.565624Q255.32812 24.83125 255.32812 25.534374L255.32812 26.940624Q255.32812 28.409374 255.39062 28.8Q255.46875 29.190624 255.67188 29.55L254.5625 29.55Q254.40625 29.221874 254.35938 28.784374ZM254.26562 26.425Q253.6875 26.659374 252.54688 26.83125Q251.89062 26.925 251.625 27.05Q251.35938 27.159374 251.20312 27.378124Q251.0625 27.596874 251.0625 27.878124Q251.0625 28.3 251.375 28.58125Q251.70312 28.8625 252.3125 28.8625Q252.92188 28.8625 253.39062 28.596874Q253.875 28.33125 254.09375 27.8625Q254.26562 27.503124 254.26562 26.815624L254.26562 26.425ZM257.29688 29.55L257.29688 23.33125L258.23438 23.33125L258.23438 24.20625Q258.92188 23.190624 260.21875 23.190624Q260.78125 23.190624 261.25 23.39375Q261.73438 23.596874 261.96875 23.925Q262.20312 24.253124 262.29688 24.690624Q262.34375 24.9875 262.34375 25.721874L262.34375 29.55L261.29688 29.55L261.29688 25.76875Q261.29688 25.1125 261.17188 24.8Q261.04688 24.4875 260.73438 24.3Q260.42188 24.096874 260.0 24.096874Q259.32812 24.096874 258.82812 24.534374Q258.34375 24.95625 258.34375 26.14375L258.34375 29.55L257.29688 29.55ZM266.59375 28.6125L266.75 29.534374Q266.29688 29.628124 265.95312 29.628124Q265.375 29.628124 265.0625 29.45625Q264.75 29.26875 264.60938 28.971874Q264.48438 28.675 264.48438 27.721874L264.48438 24.14375L263.71875 24.14375L263.71875 23.33125L264.48438 23.33125L264.48438 21.784374L265.53125 21.159374L265.53125 23.33125L266.59375 23.33125L266.59375 24.14375L265.53125 24.14375L265.53125 27.784374Q265.53125 28.2375 265.57812 28.3625Q265.64062 28.4875 265.76562 28.565624Q265.89062 28.64375 266.125 28.64375Q266.3125 28.64375 266.59375 28.6125ZM271.54688 27.55L272.64062 27.675Q272.39062 28.628124 271.6875 29.159374Q270.98438 29.690624 269.90625 29.690624Q268.54688 29.690624 267.73438 28.846874Q266.9375 28.003124 266.9375 26.4875Q266.9375 24.925 267.75 24.065624Q268.5625 23.190624 269.84375 23.190624Q271.09375 23.190624 271.875 24.034374Q272.67188 24.878124 272.67188 26.425Q272.67188 26.51875 272.67188 26.70625L268.03125 26.70625Q268.09375 27.7375 268.60938 28.284374Q269.125 28.815624 269.90625 28.815624Q270.48438 28.815624 270.89062 28.51875Q271.3125 28.20625 271.54688 27.55ZM268.09375 25.846874L271.5625 25.846874Q271.5 25.05 271.17188 24.659374Q270.65625 24.05 269.85938 24.05Q269.125 24.05 268.625 24.534374Q268.14062 25.01875 268.09375 25.846874ZM274.29688 29.55L274.29688 23.33125L275.23438 23.33125L275.23438 24.20625Q275.92188 23.190624 277.21875 23.190624Q277.78125 23.190624 278.25 23.39375Q278.73438 23.596874 278.96875 23.925Q279.20312 24.253124 279.29688 24.690624Q279.34375 24.9875 279.34375 25.721874L279.34375 29.55L278.29688 29.55L278.29688 25.76875Q278.29688 25.1125 278.17188 24.8Q278.04688 24.4875 277.73438 24.3Q277.42188 24.096874 277.0 24.096874Q276.32812 24.096874 275.82812 24.534374Q275.34375 24.95625 275.34375 26.14375L275.34375 29.55L274.29688 29.55ZM281.28125 29.55L281.28125 23.33125L282.23438 23.33125L282.23438 24.26875Q282.59375 23.6125 282.89062 23.409374Q283.20312 23.190624 283.57812 23.190624Q284.10938 23.190624 284.65625 23.51875L284.29688 24.503124Q283.90625 24.26875 283.53125 24.26875Q283.17188 24.26875 282.89062 24.4875Q282.625 24.690624 282.51562 25.065624Q282.32812 25.628124 282.32812 26.284374L282.32812 29.55L281.28125 29.55ZM289.54688 27.55L290.64062 27.675Q290.39062 28.628124 289.6875 29.159374Q288.98438 29.690624 287.90625 29.690624Q286.54688 29.690624 285.73438 28.846874Q284.9375 28.003124 284.9375 26.4875Q284.9375 24.925 285.75 24.065624Q286.5625 23.190624 287.84375 23.190624Q289.09375 23.190624 289.875 24.034374Q290.67188 24.878124 290.67188 26.425Q290.67188 26.51875 290.67188 26.70625L286.03125 26.70625Q286.09375 27.7375 286.60938 28.284374Q287.125 28.815624 287.90625 28.815624Q288.48438 28.815624 288.89062 28.51875Q289.3125 28.20625 289.54688 27.55ZM286.09375 25.846874L289.5625 25.846874Q289.5 25.05 289.17188 24.659374Q288.65625 24.05 287.85938 24.05Q287.125 24.05 286.625 24.534374Q286.14062 25.01875 286.09375 25.846874ZM292.29688 22.175L292.29688 20.95625L293.35938 20.95625L293.35938 22.175L292.29688 22.175ZM292.29688 29.55L292.29688 23.33125L293.35938 23.33125L293.35938 29.55L292.29688 29.55ZM299.35938 27.26875L300.39062 27.409374Q300.21875 28.471874 299.51562 29.08125Q298.8125 29.690624 297.79688 29.690624Q296.51562 29.690624 295.73438 28.8625Q294.96875 28.01875 294.96875 26.45625Q294.96875 25.45625 295.29688 24.70625Q295.64062 23.940624 296.3125 23.565624Q297.0 23.190624 297.8125 23.190624Q298.8125 23.190624 299.45312 23.70625Q300.10938 24.20625 300.29688 25.159374L299.26562 25.315624Q299.125 24.690624 298.75 24.378124Q298.375 24.05 297.84375 24.05Q297.04688 24.05 296.54688 24.628124Q296.04688 25.190624 296.04688 26.425Q296.04688 27.690624 296.53125 28.253124Q297.01562 28.815624 297.78125 28.815624Q298.40625 28.815624 298.8125 28.440624Q299.23438 28.065624 299.35938 27.26875ZM301.29688 29.55L301.29688 20.95625L302.34375 20.95625L302.34375 24.034374Q303.07812 23.190624 304.20312 23.190624Q304.90625 23.190624 305.40625 23.471874Q305.92188 23.7375 306.14062 24.221874Q306.35938 24.690624 306.35938 25.6125L306.35938 29.55L305.3125 29.55L305.3125 25.6125Q305.3125 24.815624 304.96875 24.45625Q304.625 24.096874 304.0 24.096874Q303.53125 24.096874 303.10938 24.346874Q302.70312 24.58125 302.51562 25.003124Q302.34375 25.409374 302.34375 26.14375L302.34375 29.55L301.29688 29.55ZM310.59375 28.6125L310.75 29.534374Q310.29688 29.628124 309.95312 29.628124Q309.375 29.628124 309.0625 29.45625Q308.75 29.26875 308.60938 28.971874Q308.48438 28.675 308.48438 27.721874L308.48438 24.14375L307.71875 24.14375L307.71875 23.33125L308.48438 23.33125L308.48438 21.784374L309.53125 21.159374L309.53125 23.33125L310.59375 23.33125L310.59375 24.14375L309.53125 24.14375L309.53125 27.784374Q309.53125 28.2375 309.57812 28.3625Q309.64062 28.4875 309.76562 28.565624Q309.89062 28.64375 310.125 28.64375Q310.3125 28.64375 310.59375 28.6125ZM315.375 29.55L315.375 28.628124Q314.64062 29.690624 313.39062 29.690624Q312.84375 29.690624 312.35938 29.4875Q311.89062 29.26875 311.65625 28.95625Q311.42188 28.628124 311.32812 28.159374Q311.26562 27.8625 311.26562 27.175L311.26562 23.33125L312.32812 23.33125L312.32812 26.784374Q312.32812 27.596874 312.39062 27.89375Q312.48438 28.3 312.79688 28.55Q313.125 28.784374 313.60938 28.784374Q314.07812 28.784374 314.48438 28.55Q314.90625 28.3 315.07812 27.878124Q315.26562 27.45625 315.26562 26.659374L315.26562 23.33125L316.3125 23.33125L316.3125 29.55L315.375 29.55ZM318.29688 29.55L318.29688 23.33125L319.23438 23.33125L319.23438 24.20625Q319.53125 23.7375 320.01562 23.471874Q320.5 23.190624 321.125 23.190624Q321.8125 23.190624 322.25 23.471874Q322.70312 23.753124 322.875 24.26875Q323.625 23.190624 324.79688 23.190624Q325.73438 23.190624 326.21875 23.70625Q326.71875 24.20625 326.71875 25.284374L326.71875 29.55L325.67188 29.55L325.67188 25.628124Q325.67188 25.003124 325.5625 24.721874Q325.46875 24.440624 325.20312 24.26875Q324.9375 24.096874 324.5625 24.096874Q323.90625 24.096874 323.46875 24.534374Q323.04688 24.971874 323.04688 25.940624L323.04688 29.55L321.98438 29.55L321.98438 25.503124Q321.98438 24.8 321.71875 24.45625Q321.46875 24.096874 320.89062 24.096874Q320.4375 24.096874 320.0625 24.33125Q319.6875 24.565624 319.51562 25.01875Q319.34375 25.471874 319.34375 26.315624L319.34375 29.55L318.29688 29.55ZM329.98438 32.08125L329.23438 32.08125Q330.98438 29.26875 330.98438 26.440624Q330.98438 25.346874 330.73438 24.253124Q330.53125 23.378124 330.17188 22.565624Q329.9375 22.05 329.23438 20.815624L329.98438 20.815624Q331.07812 22.284374 331.60938 23.76875Q332.0625 25.05 332.0625 26.440624Q332.0625 28.01875 331.45312 29.503124Q330.84375 30.971874 329.98438 32.08125Z" fill-rule="nonzero"/><path stroke="#ffdd00" stroke-width="4.0" stroke-linecap="butt" d="M348.5 25.55L360.5 25.55" fill-rule="nonzero"/><path fill="#1a1a1a" d="M369.375 29.55L369.375 20.95625L370.51562 20.95625L370.51562 25.221874L374.78125 20.95625L376.32812 20.95625L372.71875 24.440624L376.48438 29.55L374.98438 29.55L371.92188 25.20625L370.51562 26.565624L370.51562 29.55L369.375 29.55ZM381.54688 27.55L382.64062 27.675Q382.39062 28.628124 381.6875 29.159374Q380.98438 29.690624 379.90625 29.690624Q378.54688 29.690624 377.73438 28.846874Q376.9375 28.003124 376.9375 26.4875Q376.9375 24.925 377.75 24.065624Q378.5625 23.190624 379.84375 23.190624Q381.09375 23.190624 381.875 24.034374Q382.67188 24.878124 382.67188 26.425Q382.67188 26.51875 382.67188 26.70625L378.03125 26.70625Q378.09375 27.7375 378.60938 28.284374Q379.125 28.815624 379.90625 28.815624Q380.48438 28.815624 380.89062 28.51875Q381.3125 28.20625 381.54688 27.55ZM378.09375 25.846874L381.5625 25.846874Q381.5 25.05 381.17188 24.659374Q380.65625 24.05 379.85938 24.05Q379.125 24.05 378.625 24.534374Q378.14062 25.01875 378.09375 25.846874ZM384.28125 29.55L384.28125 23.33125L385.23438 23.33125L385.23438 24.26875Q385.59375 23.6125 385.89062 23.409374Q386.20312 23.190624 386.57812 23.190624Q387.10938 23.190624 387.65625 23.51875L387.29688 24.503124Q386.90625 24.26875 386.53125 24.26875Q386.17188 24.26875 385.89062 24.4875Q385.625 24.690624 385.51562 25.065624Q385.32812 25.628124 385.32812 26.284374L385.32812 29.55L384.28125 29.55ZM388.29688 29.55L388.29688 23.33125L389.23438 23.33125L389.23438 24.20625Q389.92188 23.190624 391.21875 23.190624Q391.78125 23.190624 392.25 23.39375Q392.73438 23.596874 392.96875 23.925Q393.20312 24.253124 393.29688 24.690624Q393.34375 24.9875 393.34375 25.721874L393.34375 29.55L392.29688 29.55L392.29688 25.76875Q392.29688 25.1125 392.17188 24.8Q392.04688 24.4875 391.73438 24.3Q391.42188 24.096874 391.0 24.096874Q390.32812 24.096874 389.82812 24.534374Q389.34375 24.95625 389.34375 26.14375L389.34375 29.55L388.29688 29.55ZM395.29688 29.55L395.29688 20.95625L396.35938 20.95625L396.35938 25.8625L398.84375 23.33125L400.21875 23.33125L397.82812 25.628124L400.45312 29.55L399.15625 29.55L397.09375 26.3625L396.35938 27.08125L396.35938 29.55L395.29688 29.55ZM400.90625 26.440624Q400.90625 24.70625 401.85938 23.878124Q402.65625 23.190624 403.8125 23.190624Q405.09375 23.190624 405.90625 24.034374Q406.73438 24.8625 406.73438 26.346874Q406.73438 27.55 406.375 28.2375Q406.01562 28.925 405.3125 29.315624Q404.625 29.690624 403.8125 29.690624Q402.51562 29.690624 401.70312 28.8625Q400.90625 28.01875 400.90625 26.440624ZM401.98438 26.440624Q401.98438 27.628124 402.5 28.221874Q403.03125 28.815624 403.8125 28.815624Q404.60938 28.815624 405.125 28.221874Q405.64062 27.628124 405.64062 26.409374Q405.64062 25.253124 405.10938 24.659374Q404.59375 24.065624 403.8125 24.065624Q403.03125 24.065624 402.5 24.659374Q401.98438 25.2375 401.98438 26.440624ZM408.28125 29.55L408.28125 23.33125L409.23438 23.33125L409.23438 24.26875Q409.59375 23.6125 409.89062 23.409374Q410.20312 23.190624 410.57812 23.190624Q411.10938 23.190624 411.65625 23.51875L411.29688 24.503124Q410.90625 24.26875 410.53125 24.26875Q410.17188 24.26875 409.89062 24.4875Q409.625 24.690624 409.51562 25.065624Q409.32812 25.628124 409.32812 26.284374L409.32812 29.55L408.28125 29.55ZM412.29688 31.940624L412.29688 23.33125L413.25 23.33125L413.25 24.128124Q413.59375 23.659374 414.01562 23.425Q414.45312 23.190624 415.0625 23.190624Q415.85938 23.190624 416.46875 23.596874Q417.07812 24.003124 417.375 24.753124Q417.6875 25.503124 417.6875 26.39375Q417.6875 27.346874 417.34375 28.1125Q417.01562 28.878124 416.35938 29.284374Q415.70312 29.690624 414.98438 29.690624Q414.45312 29.690624 414.03125 29.471874Q413.60938 29.2375 413.34375 28.909374L413.34375 31.940624L412.29688 31.940624ZM413.25 26.471874Q413.25 27.675 413.73438 28.253124Q414.21875 28.815624 414.90625 28.815624Q415.60938 28.815624 416.10938 28.221874Q416.60938 27.628124 416.60938 26.378124Q416.60938 25.190624 416.125 24.6125Q415.64062 24.01875 414.95312 24.01875Q414.28125 24.01875 413.76562 24.64375Q413.25 25.26875 413.25 26.471874ZM423.375 29.55L423.375 28.628124Q422.64062 29.690624 421.39062 29.690624Q420.84375 29.690624 420.35938 29.4875Q419.89062 29.26875 419.65625 28.95625Q419.42188 28.628124 419.32812 28.159374Q419.26562 27.8625 419.26562 27.175L419.26562 23.33125L420.32812 23.33125L420.32812 26.784374Q420.32812 27.596874 420.39062 27.89375Q420.48438 28.3 420.79688 28.55Q421.125 28.784374 421.60938 28.784374Q422.07812 28.784374 422.48438 28.55Q422.90625 28.3 423.07812 27.878124Q423.26562 27.45625 423.26562 26.659374L423.26562 23.33125L424.3125 23.33125L424.3125 29.55L423.375 29.55ZM425.875 27.690624L426.90625 27.534374Q427.0 28.159374 427.39062 28.4875Q427.79688 28.815624 428.53125 28.815624Q429.25 28.815624 429.59375 28.534374Q429.95312 28.2375 429.95312 27.83125Q429.95312 27.471874 429.64062 27.26875Q429.42188 27.128124 428.5625 26.909374Q427.40625 26.6125 426.95312 26.409374Q426.51562 26.190624 426.28125 25.815624Q426.04688 25.440624 426.04688 24.971874Q426.04688 24.565624 426.23438 24.20625Q426.42188 23.846874 426.75 23.6125Q427.0 23.440624 427.42188 23.315624Q427.84375 23.190624 428.34375 23.190624Q429.0625 23.190624 429.60938 23.409374Q430.17188 23.6125 430.4375 23.971874Q430.70312 24.33125 430.79688 24.925L429.76562 25.065624Q429.70312 24.596874 429.35938 24.33125Q429.03125 24.05 428.40625 24.05Q427.6875 24.05 427.375 24.3Q427.0625 24.534374 427.0625 24.8625Q427.0625 25.065624 427.1875 25.221874Q427.32812 25.39375 427.59375 25.503124Q427.75 25.565624 428.53125 25.76875Q429.65625 26.08125 430.09375 26.26875Q430.53125 26.45625 430.78125 26.815624Q431.03125 27.175 431.03125 27.721874Q431.03125 28.253124 430.71875 28.721874Q430.42188 29.175 429.84375 29.440624Q429.26562 29.690624 428.53125 29.690624Q427.3125 29.690624 426.67188 29.190624Q426.04688 28.675 425.875 27.690624ZM438.3125 32.08125Q437.4375 30.971874 436.82812 29.503124Q436.23438 28.01875 436.23438 26.440624Q436.23438 25.05 436.67188 23.76875Q437.20312 22.284374 438.3125 20.815624L439.0625 20.815624Q438.35938 22.034374 438.125 22.55Q437.76562 23.3625 437.5625 24.2375Q437.3125 25.33125 437.3125 26.440624Q437.3125 29.26875 439.0625 32.08125L438.3125 32.08125ZM442.60938 29.55L442.60938 21.971874L439.78125 21.971874L439.78125 20.95625L446.59375 20.95625L446.59375 21.971874L443.75 21.971874L443.75 29.55L442.60938 29.55ZM451.54688 27.55L452.64062 27.675Q452.39062 28.628124 451.6875 29.159374Q450.98438 29.690624 449.90625 29.690624Q448.54688 29.690624 447.73438 28.846874Q446.9375 28.003124 446.9375 26.4875Q446.9375 24.925 447.75 24.065624Q448.5625 23.190624 449.84375 23.190624Q451.09375 23.190624 451.875 24.034374Q452.67188 24.878124 452.67188 26.425Q452.67188 26.51875 452.67188 26.70625L448.03125 26.70625Q448.09375 27.7375 448.60938 28.284374Q449.125 28.815624 449.90625 28.815624Q450.48438 28.815624 450.89062 28.51875Q451.3125 28.20625 451.54688 27.55ZM448.09375 25.846874L451.5625 25.846874Q451.5 25.05 451.17188 24.659374Q450.65625 24.05 449.85938 24.05Q449.125 24.05 448.625 24.534374Q448.14062 25.01875 448.09375 25.846874ZM453.59375 29.55L455.85938 26.315624L453.76562 23.33125L455.07812 23.33125L456.03125 24.784374Q456.29688 25.20625 456.46875 25.4875Q456.71875 25.096874 456.9375 24.8L457.98438 23.33125L459.25 23.33125L457.09375 26.253124L459.40625 29.55L458.125 29.55L456.84375 27.6125L456.5 27.096874L454.85938 29.55L453.59375 29.55ZM461.59375 28.6125L461.75 29.534374Q461.29688 29.628124 460.95312 29.628124Q460.375 29.628124 460.0625 29.45625Q459.75 29.26875 459.60938 28.971874Q459.48438 28.675 459.48438 27.721874L459.48438 24.14375L458.71875 24.14375L458.71875 23.33125L459.48438 23.33125L459.48438 21.784374L460.53125 21.159374L460.53125 23.33125L461.59375 23.33125L461.59375 24.14375L460.53125 24.14375L460.53125 27.784374Q460.53125 28.2375 460.57812 28.3625Q460.64062 28.4875 460.76562 28.565624Q460.89062 28.64375 461.125 28.64375Q461.3125 28.64375 461.59375 28.6125ZM466.35938 28.784374Q465.76562 29.284374 465.21875 29.4875Q464.6875 29.690624 464.0625 29.690624Q463.03125 29.690624 462.48438 29.190624Q461.9375 28.690624 461.9375 27.909374Q461.9375 27.45625 462.14062 27.08125Q462.34375 26.690624 462.6875 26.471874Q463.03125 26.2375 463.45312 26.128124Q463.75 26.034374 464.39062 25.95625Q465.65625 25.815624 466.26562 25.596874Q466.26562 25.378124 466.26562 25.33125Q466.26562 24.675 465.96875 24.409374Q465.5625 24.065624 464.76562 24.065624Q464.03125 24.065624 463.67188 24.33125Q463.3125 24.58125 463.14062 25.2375L462.10938 25.096874Q462.25 24.440624 462.57812 24.034374Q462.90625 23.628124 463.51562 23.409374Q464.125 23.190624 464.92188 23.190624Q465.71875 23.190624 466.21875 23.378124Q466.71875 23.565624 466.95312 23.846874Q467.1875 24.128124 467.28125 24.565624Q467.32812 24.83125 467.32812 25.534374L467.32812 26.940624Q467.32812 28.409374 467.39062 28.8Q467.46875 29.190624 467.67188 29.55L466.5625 29.55Q466.40625 29.221874 466.35938 28.784374ZM466.26562 26.425Q465.6875 26.659374 464.54688 26.83125Q463.89062 26.925 463.625 27.05Q463.35938 27.159374 463.20312 27.378124Q463.0625 27.596874 463.0625 27.878124Q463.0625 28.3 463.375 28.58125Q463.70312 28.8625 464.3125 28.8625Q464.92188 28.8625 465.39062 28.596874Q465.875 28.33125 466.09375 27.8625Q466.26562 27.503124 466.26562 26.815624L466.26562 26.425ZM469.29688 29.55L469.29688 23.33125L470.23438 23.33125L470.23438 24.20625Q470.92188 23.190624 472.21875 23.190624Q472.78125 23.190624 473.25 23.39375Q473.73438 23.596874 473.96875 23.925Q474.20312 24.253124 474.29688 24.690624Q474.34375 24.9875 474.34375 25.721874L474.34375 29.55L473.29688 29.55L473.29688 25.76875Q473.29688 25.1125 473.17188 24.8Q473.04688 24.4875 472.73438 24.3Q472.42188 24.096874 472.0 24.096874Q471.32812 24.096874 470.82812 24.534374Q470.34375 24.95625 470.34375 26.14375L470.34375 29.55L469.29688 29.55ZM475.73438 29.55L475.73438 28.690624L479.70312 24.14375Q479.01562 24.175 478.5 24.175L475.96875 24.175L475.96875 23.33125L481.0625 23.33125L481.0625 24.01875L477.6875 27.971874L477.03125 28.690624Q477.75 28.64375 478.35938 28.64375L481.25 28.64375L481.25 29.55L475.73438 29.55ZM485.35938 28.784374Q484.76562 29.284374 484.21875 29.4875Q483.6875 29.690624 483.0625 29.690624Q482.03125 29.690624 481.48438 29.190624Q480.9375 28.690624 480.9375 27.909374Q480.9375 27.45625 481.14062 27.08125Q481.34375 26.690624 481.6875 26.471874Q482.03125 26.2375 482.45312 26.128124Q482.75 26.034374 483.39062 25.95625Q484.65625 25.815624 485.26562 25.596874Q485.26562 25.378124 485.26562 25.33125Q485.26562 24.675 484.96875 24.409374Q484.5625 24.065624 483.76562 24.065624Q483.03125 24.065624 482.67188 24.33125Q482.3125 24.58125 482.14062 25.2375L481.10938 25.096874Q481.25 24.440624 481.57812 24.034374Q481.90625 23.628124 482.51562 23.409374Q483.125 23.190624 483.92188 23.190624Q484.71875 23.190624 485.21875 23.378124Q485.71875 23.565624 485.95312 23.846874Q486.1875 24.128124 486.28125 24.565624Q486.32812 24.83125 486.32812 25.534374L486.32812 26.940624Q486.32812 28.409374 486.39062 28.8Q486.46875 29.190624 486.67188 29.55L485.5625 29.55Q485.40625 29.221874 485.35938 28.784374ZM485.26562 26.425Q484.6875 26.659374 483.54688 26.83125Q482.89062 26.925 482.625 27.05Q482.35938 27.159374 482.20312 27.378124Q482.0625 27.596874 482.0625 27.878124Q482.0625 28.3 482.375 28.58125Q482.70312 28.8625 483.3125 28.8625Q483.92188 28.8625 484.39062 28.596874Q484.875 28.33125 485.09375 27.8625Q485.26562 27.503124 485.26562 26.815624L485.26562 26.425ZM488.29688 29.55L488.29688 20.95625L489.34375 20.95625L489.34375 24.034374Q490.07812 23.190624 491.20312 23.190624Q491.90625 23.190624 492.40625 23.471874Q492.92188 23.7375 493.14062 24.221874Q493.35938 24.690624 493.35938 25.6125L493.35938 29.55L492.3125 29.55L492.3125 25.6125Q492.3125 24.815624 491.96875 24.45625Q491.625 24.096874 491.0 24.096874Q490.53125 24.096874 490.10938 24.346874Q489.70312 24.58125 489.51562 25.003124Q489.34375 25.409374 489.34375 26.14375L489.34375 29.55L488.29688 29.55ZM495.26562 29.55L495.26562 20.95625L496.32812 20.95625L496.32812 29.55L495.26562 29.55ZM498.98438 32.08125L498.23438 32.08125Q499.98438 29.26875 499.98438 26.440624Q499.98438 25.346874 499.73438 24.253124Q499.53125 23.378124 499.17188 22.565624Q498.9375 22.05 498.23438 20.815624L498.98438 20.815624Q500.07812 22.284374 500.60938 23.76875Q501.0625 25.05 501.0625 26.440624Q501.0625 28.01875 500.45312 29.503124Q499.84375 30.971874 498.98438 32.08125Z" fill-rule="nonzero"/><path stroke="#40005a" stroke-width="4.0" stroke-linecap="butt" d="M517.5 25.55L529.5 25.55" fill-rule="nonzero"/><path fill="#1a1a1a" d="M538.375 29.55L538.375 20.95625L539.5156 20.95625L539.5156 25.221874L543.78125 20.95625L545.3281 20.95625L541.71875 24.440624L545.4844 29.55L543.9844 29.55L540.9219 25.20625L539.5156 26.565624L539.5156 29.55L538.375 29.55ZM550.5469 27.55L551.6406 27.675Q551.3906 28.628124 550.6875 29.159374Q549.9844 29.690624 548.90625 29.690624Q547.5469 29.690624 546.7344 28.846874Q545.9375 28.003124 545.9375 26.4875Q545.9375 24.925 546.75 24.065624Q547.5625 23.190624 548.84375 23.190624Q550.09375 23.190624 550.875 24.034374Q551.6719 24.878124 551.6719 26.425Q551.6719 26.51875 551.6719 26.70625L547.03125 26.70625Q547.09375 27.7375 547.6094 28.284374Q548.125 28.815624 548.90625 28.815624Q549.4844 28.815624 549.8906 28.51875Q550.3125 28.20625 550.5469 27.55ZM547.09375 25.846874L550.5625 25.846874Q550.5 25.05 550.1719 24.659374Q549.65625 24.05 548.8594 24.05Q548.125 24.05 547.625 24.534374Q547.1406 25.01875 547.09375 25.846874ZM553.28125 29.55L553.28125 23.33125L554.2344 23.33125L554.2344 24.26875Q554.59375 23.6125 554.8906 23.409374Q555.2031 23.190624 555.5781 23.190624Q556.1094 23.190624 556.65625 23.51875L556.2969 24.503124Q555.90625 24.26875 555.53125 24.26875Q555.1719 24.26875 554.8906 24.4875Q554.625 24.690624 554.5156 25.065624Q554.3281 25.628124 554.3281 26.284374L554.3281 29.55L553.28125 29.55ZM557.2969 29.55L557.2969 23.33125L558.2344 23.33125L558.2344 24.20625Q558.9219 23.190624 560.21875 23.190624Q560.78125 23.190624 561.25 23.39375Q561.7344 23.596874 561.96875 23.925Q562.2031 24.253124 562.2969 24.690624Q562.34375 24.9875 562.34375 25.721874L562.34375 29.55L561.2969 29.55L561.2969 25.76875Q561.2969 25.1125 561.1719 24.8Q561.0469 24.4875 560.7344 24.3Q560.4219 24.096874 560.0 24.096874Q559.3281 24.096874 558.8281 24.534374Q558.34375 24.95625 558.34375 26.14375L558.34375 29.55L557.2969 29.55ZM564.2969 29.55L564.2969 20.95625L565.3594 20.95625L565.3594 25.8625L567.84375 23.33125L569.21875 23.33125L566.8281 25.628124L569.4531 29.55L568.15625 29.55L566.09375 26.3625L565.3594 27.08125L565.3594 29.55L564.2969 29.55ZM569.90625 26.440624Q569.90625 24.70625 570.8594 23.878124Q571.65625 23.190624 572.8125 23.190624Q574.09375 23.190624 574.90625 24.034374Q575.7344 24.8625 575.7344 26.346874Q575.7344 27.55 575.375 28.2375Q575.0156 28.925 574.3125 29.315624Q573.625 29.690624 572.8125 29.690624Q571.5156 29.690624 570.7031 28.8625Q569.90625 28.01875 569.90625 26.440624ZM570.9844 26.440624Q570.9844 27.628124 571.5 28.221874Q572.03125 28.815624 572.8125 28.815624Q573.6094 28.815624 574.125 28.221874Q574.6406 27.628124 574.6406 26.409374Q574.6406 25.253124 574.1094 24.659374Q573.59375 24.065624 572.8125 24.065624Q572.03125 24.065624 571.5 24.659374Q570.9844 25.2375 570.9844 26.440624ZM577.28125 29.55L577.28125 23.33125L578.2344 23.33125L578.2344 24.26875Q578.59375 23.6125 578.8906 23.409374Q579.2031 23.190624 579.5781 23.190624Q580.1094 23.190624 580.65625 23.51875L580.2969 24.503124Q579.90625 24.26875 579.53125 24.26875Q579.1719 24.26875 578.8906 24.4875Q578.625 24.690624 578.5156 25.065624Q578.3281 25.628124 578.3281 26.284374L578.3281 29.55L577.28125 29.55ZM581.2969 31.940624L581.2969 23.33125L582.25 23.33125L582.25 24.128124Q582.59375 23.659374 583.0156 23.425Q583.4531 23.190624 584.0625 23.190624Q584.8594 23.190624 585.46875 23.596874Q586.0781 24.003124 586.375 24.753124Q586.6875 25.503124 586.6875 26.39375Q586.6875 27.346874 586.34375 28.1125Q586.0156 28.878124 585.3594 29.284374Q584.7031 29.690624 583.9844 29.690624Q583.4531 29.690624 583.03125 29.471874Q582.6094 29.2375 582.34375 28.909374L582.34375 31.940624L581.2969 31.940624ZM582.25 26.471874Q582.25 27.675 582.7344 28.253124Q583.21875 28.815624 583.90625 28.815624Q584.6094 28.815624 585.1094 28.221874Q585.6094 27.628124 585.6094 26.378124Q585.6094 25.190624 585.125 24.6125Q584.6406 24.01875 583.9531 24.01875Q583.28125 24.01875 582.7656 24.64375Q582.25 25.26875 582.25 26.471874ZM592.375 29.55L592.375 28.628124Q591.6406 29.690624 590.3906 29.690624Q589.84375 29.690624 589.3594 29.4875Q588.8906 29.26875 588.65625 28.95625Q588.4219 28.628124 588.3281 28.159374Q588.2656 27.8625 588.2656 27.175L588.2656 23.33125L589.3281 23.33125L589.3281 26.784374Q589.3281 27.596874 589.3906 27.89375Q589.4844 28.3 589.7969 28.55Q590.125 28.784374 590.6094 28.784374Q591.0781 28.784374 591.4844 28.55Q591.90625 28.3 592.0781 27.878124Q592.2656 27.45625 592.2656 26.659374L592.2656 23.33125L593.3125 23.33125L593.3125 29.55L592.375 29.55ZM594.875 27.690624L595.90625 27.534374Q596.0 28.159374 596.3906 28.4875Q596.7969 28.815624 597.53125 28.815624Q598.25 28.815624 598.59375 28.534374Q598.9531 28.2375 598.9531 27.83125Q598.9531 27.471874 598.6406 27.26875Q598.4219 27.128124 597.5625 26.909374Q596.40625 26.6125 595.9531 26.409374Q595.5156 26.190624 595.28125 25.815624Q595.0469 25.440624 595.0469 24.971874Q595.0469 24.565624 595.2344 24.20625Q595.4219 23.846874 595.75 23.6125Q596.0 23.440624 596.4219 23.315624Q596.84375 23.190624 597.34375 23.190624Q598.0625 23.190624 598.6094 23.409374Q599.1719 23.6125 599.4375 23.971874Q599.7031 24.33125 599.7969 24.925L598.7656 25.065624Q598.7031 24.596874 598.3594 24.33125Q598.03125 24.05 597.40625 24.05Q596.6875 24.05 596.375 24.3Q596.0625 24.534374 596.0625 24.8625Q596.0625 25.065624 596.1875 25.221874Q596.3281 25.39375 596.59375 25.503124Q596.75 25.565624 597.53125 25.76875Q598.65625 26.08125 599.09375 26.26875Q599.53125 26.45625 599.78125 26.815624Q600.03125 27.175 600.03125 27.721874Q600.03125 28.253124 599.71875 28.721874Q599.4219 29.175 598.84375 29.440624Q598.2656 29.690624 597.53125 29.690624Q596.3125 29.690624 595.6719 29.190624Q595.0469 28.675 594.875 27.690624ZM607.3125 32.08125Q606.4375 30.971874 605.8281 29.503124Q605.2344 28.01875 605.2344 26.440624Q605.2344 25.05 605.6719 23.76875Q606.2031 22.284374 607.3125 20.815624L608.0625 20.815624Q607.3594 22.034374 607.125 22.55Q606.7656 23.3625 606.5625 24.2375Q606.3125 25.33125 606.3125 26.440624Q606.3125 29.26875 608.0625 32.08125L607.3125 32.08125ZM609.3906 29.55L609.3906 20.95625L611.1094 20.95625L613.1406 27.034374Q613.4219 27.89375 613.5469 28.315624Q613.6875 27.846874 614.0 26.940624L616.0625 20.95625L617.59375 20.95625L617.59375 29.55L616.5 29.55L616.5 22.3625L614.0 29.55L612.96875 29.55L610.4844 22.2375L610.4844 29.55L609.3906 29.55ZM622.5469 27.55L623.6406 27.675Q623.3906 28.628124 622.6875 29.159374Q621.9844 29.690624 620.90625 29.690624Q619.5469 29.690624 618.7344 28.846874Q617.9375 28.003124 617.9375 26.4875Q617.9375 24.925 618.75 24.065624Q619.5625 23.190624 620.84375 23.190624Q622.09375 23.190624 622.875 24.034374Q623.6719 24.878124 623.6719 26.425Q623.6719 26.51875 623.6719 26.70625L619.03125 26.70625Q619.09375 27.7375 619.6094 28.284374Q620.125 28.815624 620.90625 28.815624Q621.4844 28.815624 621.8906 28.51875Q622.3125 28.20625 622.5469 27.55ZM619.09375 25.846874L622.5625 25.846874Q622.5 25.05 622.1719 24.659374Q621.65625 24.05 620.8594 24.05Q620.125 24.05 619.625 24.534374Q619.1406 25.01875 619.09375 25.846874ZM627.59375 28.6125L627.75 29.534374Q627.2969 29.628124 626.9531 29.628124Q626.375 29.628124 626.0625 29.45625Q625.75 29.26875 625.6094 28.971874Q625.4844 28.675 625.4844 27.721874L625.4844 24.14375L624.71875 24.14375L624.71875 23.33125L625.4844 23.33125L625.4844 21.784374L626.53125 21.159374L626.53125 23.33125L627.59375 23.33125L627.59375 24.14375L626.53125 24.14375L626.53125 27.784374Q626.53125 28.2375 626.5781 28.3625Q626.6406 28.4875 626.7656 28.565624Q626.8906 28.64375 627.125 28.64375Q627.3125 28.64375 627.59375 28.6125ZM632.3594 28.784374Q631.7656 29.284374 631.21875 29.4875Q630.6875 29.690624 630.0625 29.690624Q629.03125 29.690624 628.4844 29.190624Q627.9375 28.690624 627.9375 27.909374Q627.9375 27.45625 628.1406 27.08125Q628.34375 26.690624 628.6875 26.471874Q629.03125 26.2375 629.4531 26.128124Q629.75 26.034374 630.3906 25.95625Q631.65625 25.815624 632.2656 25.596874Q632.2656 25.378124 632.2656 25.33125Q632.2656 24.675 631.96875 24.409374Q631.5625 24.065624 630.7656 24.065624Q630.03125 24.065624 629.6719 24.33125Q629.3125 24.58125 629.1406 25.2375L628.1094 25.096874Q628.25 24.440624 628.5781 24.034374Q628.90625 23.628124 629.5156 23.409374Q630.125 23.190624 630.9219 23.190624Q631.71875 23.190624 632.21875 23.378124Q632.71875 23.565624 632.9531 23.846874Q633.1875 24.128124 633.28125 24.565624Q633.3281 24.83125 633.3281 25.534374L633.3281 26.940624Q633.3281 28.409374 633.3906 28.8Q633.46875 29.190624 633.6719 29.55L632.5625 29.55Q632.40625 29.221874 632.3594 28.784374ZM632.2656 26.425Q631.6875 26.659374 630.5469 26.83125Q629.8906 26.925 629.625 27.05Q629.3594 27.159374 629.2031 27.378124Q629.0625 27.596874 629.0625 27.878124Q629.0625 28.3 629.375 28.58125Q629.7031 28.8625 630.3125 28.8625Q630.9219 28.8625 631.3906 28.596874Q631.875 28.33125 632.09375 27.8625Q632.2656 27.503124 632.2656 26.815624L632.2656 26.425ZM635.2969 31.940624L635.2969 23.33125L636.25 23.33125L636.25 24.128124Q636.59375 23.659374 637.0156 23.425Q637.4531 23.190624 638.0625 23.190624Q638.8594 23.190624 639.46875 23.596874Q640.0781 24.003124 640.375 24.753124Q640.6875 25.503124 640.6875 26.39375Q640.6875 27.346874 640.34375 28.1125Q640.0156 28.878124 639.3594 29.284374Q638.7031 29.690624 637.9844 29.690624Q637.4531 29.690624 637.03125 29.471874Q636.6094 29.2375 636.34375 28.909374L636.34375 31.940624L635.2969 31.940624ZM636.25 26.471874Q636.25 27.675 636.7344 28.253124Q637.21875 28.815624 637.90625 28.815624Q638.6094 28.815624 639.1094 28.221874Q639.6094 27.628124 639.6094 26.378124Q639.6094 25.190624 639.125 24.6125Q638.6406 24.01875 637.9531 24.01875Q637.28125 24.01875 636.7656 24.64375Q636.25 25.26875 636.25 26.471874ZM642.2969 29.55L642.2969 20.95625L643.34375 20.95625L643.34375 24.034374Q644.0781 23.190624 645.2031 23.190624Q645.90625 23.190624 646.40625 23.471874Q646.9219 23.7375 647.1406 24.221874Q647.3594 24.690624 647.3594 25.6125L647.3594 29.55L646.3125 29.55L646.3125 25.6125Q646.3125 24.815624 645.96875 24.45625Q645.625 24.096874 645.0 24.096874Q644.53125 24.096874 644.1094 24.346874Q643.7031 24.58125 643.5156 25.003124Q643.34375 25.409374 643.34375 26.14375L643.34375 29.55L642.2969 29.55ZM653.5469 27.55L654.6406 27.675Q654.3906 28.628124 653.6875 29.159374Q652.9844 29.690624 651.90625 29.690624Q650.5469 29.690624 649.7344 28.846874Q648.9375 28.003124 648.9375 26.4875Q648.9375 24.925 649.75 24.065624Q650.5625 23.190624 651.84375 23.190624Q653.09375 23.190624 653.875 24.034374Q654.6719 24.878124 654.6719 26.425Q654.6719 26.51875 654.6719 26.70625L650.03125 26.70625Q650.09375 27.7375 650.6094 28.284374Q651.125 28.815624 651.90625 28.815624Q652.4844 28.815624 652.8906 28.51875Q653.3125 28.20625 653.5469 27.55ZM650.09375 25.846874L653.5625 25.846874Q653.5 25.05 653.1719 24.659374Q652.65625 24.05 651.8594 24.05Q651.125 24.05 650.625 24.534374Q650.1406 25.01875 650.09375 25.846874ZM656.28125 29.55L656.28125 23.33125L657.2344 23.33125L657.2344 24.26875Q657.59375 23.6125 657.8906 23.409374Q658.2031 23.190624 658.5781 23.190624Q659.1094 23.190624 659.65625 23.51875L659.2969 24.503124Q658.90625 24.26875 658.53125 24.26875Q658.1719 24.26875 657.8906 24.4875Q657.625 24.690624 657.5156 25.065624Q657.3281 25.628124 657.3281 26.284374L657.3281 29.55L656.28125 29.55ZM660.2969 29.55L660.2969 23.33125L661.2344 23.33125L661.2344 24.20625Q661.9219 23.190624 663.21875 23.190624Q663.78125 23.190624 664.25 23.39375Q664.7344 23.596874 664.96875 23.925Q665.2031 24.253124 665.2969 24.690624Q665.34375 24.9875 665.34375 25.721874L665.34375 29.55L664.2969 29.55L664.2969 25.76875Q664.2969 25.1125 664.1719 24.8Q664.0469 24.4875 663.7344 24.3Q663.4219 24.096874 663.0 24.096874Q662.3281 24.096874 661.8281 24.534374Q661.34375 24.95625 661.34375 26.14375L661.34375 29.55L660.2969 29.55ZM671.3594 28.784374Q670.7656 29.284374 670.21875 29.4875Q669.6875 29.690624 669.0625 29.690624Q668.03125 29.690624 667.4844 29.190624Q666.9375 28.690624 666.9375 27.909374Q666.9375 27.45625 667.1406 27.08125Q667.34375 26.690624 667.6875 26.471874Q668.03125 26.2375 668.4531 26.128124Q668.75 26.034374 669.3906 25.95625Q670.65625 25.815624 671.2656 25.596874Q671.2656 25.378124 671.2656 25.33125Q671.2656 24.675 670.96875 24.409374Q670.5625 24.065624 669.7656 24.065624Q669.03125 24.065624 668.6719 24.33125Q668.3125 24.58125 668.1406 25.2375L667.1094 25.096874Q667.25 24.440624 667.5781 24.034374Q667.90625 23.628124 668.5156 23.409374Q669.125 23.190624 669.9219 23.190624Q670.71875 23.190624 671.21875 23.378124Q671.71875 23.565624 671.9531 23.846874Q672.1875 24.128124 672.28125 24.565624Q672.3281 24.83125 672.3281 25.534374L672.3281 26.940624Q672.3281 28.409374 672.3906 28.8Q672.46875 29.190624 672.6719 29.55L671.5625 29.55Q671.40625 29.221874 671.3594 28.784374ZM671.2656 26.425Q670.6875 26.659374 669.5469 26.83125Q668.8906 26.925 668.625 27.05Q668.3594 27.159374 668.2031 27.378124Q668.0625 27.596874 668.0625 27.878124Q668.0625 28.3 668.375 28.58125Q668.7031 28.8625 669.3125 28.8625Q669.9219 28.8625 670.3906 28.596874Q670.875 28.33125 671.09375 27.8625Q671.2656 27.503124 671.2656 26.815624L671.2656 26.425ZM674.2969 29.55L674.2969 23.33125L675.2344 23.33125L675.2344 24.20625Q675.9219 23.190624 677.21875 23.190624Q677.78125 23.190624 678.25 23.39375Q678.7344 23.596874 678.96875 23.925Q679.2031 24.253124 679.2969 24.690624Q679.34375 24.9875 679.34375 25.721874L679.34375 29.55L678.2969 29.55L678.2969 25.76875Q678.2969 25.1125 678.1719 24.8Q678.0469 24.4875 677.7344 24.3Q677.4219 24.096874 677.0 24.096874Q676.3281 24.096874 675.8281 24.534374Q675.34375 24.95625 675.34375 26.14375L675.34375 29.55L674.2969 29.55ZM683.59375 28.6125L683.75 29.534374Q683.2969 29.628124 682.9531 29.628124Q682.375 29.628124 682.0625 29.45625Q681.75 29.26875 681.6094 28.971874Q681.4844 28.675 681.4844 27.721874L681.4844 24.14375L680.71875 24.14375L680.71875 23.33125L681.4844 23.33125L681.4844 21.784374L682.53125 21.159374L682.53125 23.33125L683.59375 23.33125L683.59375 24.14375L682.53125 24.14375L682.53125 27.784374Q682.53125 28.2375 682.5781 28.3625Q682.6406 28.4875 682.7656 28.565624Q682.8906 28.64375 683.125 28.64375Q683.3125 28.64375 683.59375 28.6125ZM688.5469 27.55L689.6406 27.675Q689.3906 28.628124 688.6875 29.159374Q687.9844 29.690624 686.90625 29.690624Q685.5469 29.690624 684.7344 28.846874Q683.9375 28.003124 683.9375 26.4875Q683.9375 24.925 684.75 24.065624Q685.5625 23.190624 686.84375 23.190624Q688.09375 23.190624 688.875 24.034374Q689.6719 24.878124 689.6719 26.425Q689.6719 26.51875 689.6719 26.70625L685.03125 26.70625Q685.09375 27.7375 685.6094 28.284374Q686.125 28.815624 686.90625 28.815624Q687.4844 28.815624 687.8906 28.51875Q688.3125 28.20625 688.5469 27.55ZM685.09375 25.846874L688.5625 25.846874Q688.5 25.05 688.1719 24.659374Q687.65625 24.05 686.8594 24.05Q686.125 24.05 685.625 24.534374Q685.1406 25.01875 685.09375 25.846874ZM691.2969 22.175L691.2969 20.95625L692.3594 20.95625L692.3594 22.175L691.2969 22.175ZM691.2969 29.55L691.2969 23.33125L692.3594 23.33125L692.3594 29.55L691.2969 29.55ZM694.2656 29.55L694.2656 20.95625L695.3281 20.95625L695.3281 29.55L694.2656 29.55ZM697.9844 32.08125L697.2344 32.08125Q698.9844 29.26875 698.9844 26.440624Q698.9844 25.346874 698.7344 24.253124Q698.53125 23.378124 698.1719 22.565624Q697.9375 22.05 697.2344 20.815624L697.9844 20.815624Q699.0781 22.284374 699.6094 23.76875Q700.0625 25.05 700.0625 26.440624Q700.0625 28.01875 699.4531 29.503124Q698.84375 30.971874 697.9844 32.08125Z" fill-rule="nonzero"/></svg>