<svg version="1.1" viewBox="0.0 0.0 600.0 371.0" fill="none" stroke="none" stroke-linecap="square" stroke-miterlimit="10" width="600" height="371" xmlns:xlink="http://www.w3.org/1999/xlink" xmlns="http://www.w3.org/2000/svg"><path fill="#ffffff" d="M0 0L600.0 0L600.0 371.0L0 371.0L0 0Z" fill-rule="nonzero"/><path stroke="#333333" stroke-width="1.0" stroke-linecap="butt" d="M52.5 332.5L581.5 332.5" fill-rule="nonzero"/><path stroke="#cccccc" stroke-width="1.0" stroke-linecap="butt" d="M52.5 238.5L581.5 238.5" fill-rule="nonzero"/><path stroke="#cccccc" stroke-width="1.0" stroke-linecap="butt" d="M52.5 145.5L581.5 145.5" fill-rule="nonzero"/><path stroke="#cccccc" stroke-width="1.0" stroke-linecap="butt" d="M52.5 51.5L581.5 51.5" fill-rule="nonzero"/><clipPath id="id_0"><path d="M52.55 51.916668L581.45 51.916668L581.45 332.45L52.55 332.45L52.55 51.916668Z" clip-rule="nonzero"/></clipPath><path fill="#ffdd00" fill-opacity="0.3019608" clip-path="url(#id_0)" d="M52.55 289.43488L228.85 283.6372L405.15 280.87863L581.45 253.94742L581.45 332.45L405.15 332.45L228.85 332.45L52.55 332.45Z" fill-rule="nonzero"/><path fill="#f28585" fill-opacity="0.3019608" clip-path="url(#id_0)" d="M52.55 193.02493L228.85 278.86813L405.15 302.61996L581.45 318.4701L581.45 332.45L405.15 332.45L228.85 332.45L52.55 332.45Z" fill-rule="nonzero"/><path fill="#40005a" fill-opacity="0.3019608" clip-path="url(#id_0)" d="M52.55 279.38245L228.85 309.3995L405.15 323.1924L581.45 329.97195L581.45 332.45L405.15 332.45L228.85 332.45L52.55 332.45Z" fill-rule="nonzero"/><path fill="#695656" fill-opacity="0.3019608" clip-path="url(#id_0)" d="M52.55 96.94227L228.85 207.00484L405.15 241.79099L581.45 237.48947L581.45 332.45L405.15 332.45L228.85 332.45L52.55 332.45Z" fill-rule="nonzero"/><path stroke="#ffdd00" stroke-width="2.0" stroke-linecap="butt" clip-path="url(#id_0)" d="M52.55 289.43488L228.85 283.6372L405.15 280.87863L581.45 253.94742" fill-rule="nonzero"/><path stroke="#f28585" stroke-width="2.0" stroke-linecap="butt" clip-path="url(#id_0)" d="M52.55 193.02493L228.85 278.86813L405.15 302.61996L581.45 318.4701" fill-rule="nonzero"/><path stroke="#40005a" stroke-width="2.0" stroke-linecap="butt" clip-path="url(#id_0)" d="M52.55 279.38245L228.85 309.3995L405.15 323.1924L581.45 329.97195" fill-rule="nonzero"/><path stroke="#695656" stroke-width="2.0" stroke-linecap="butt" clip-path="url(#id_0)" d="M52.55 96.94227L228.85 207.00484L405.15 241.79099L581.45 237.48947" fill-rule="nonzero"/><path fill="#000000" fill-opacity="0.0" clip-path="url(#id_0)" d="M55.55 289.43488C55.55 291.09174 54.206856 292.43488 52.55 292.43488C50.893147 292.43488 49.55 291.09174 49.55 289.43488C49.55 287.77805 50.893147 286.43488 52.55 286.43488C54.206856 286.43488 55.55 287.77805 55.55 289.43488Z" fill-rule="nonzero"/><path fill="#000000" fill-opacity="0.0" clip-path="url(#id_0)" d="M231.85 283.6372C231.85 285.29407 230.50685 286.6372 228.85 286.6372C227.19315 286.6372 225.85 285.29407 225.85 283.6372C225.85 281.98035 227.19315 280.6372 228.85 280.6372C230.50685 280.6372 231.85 281.98035 231.85 283.6372Z" fill-rule="nonzero"/><path fill="#000000" fill-opacity="0.0" clip-path="url(#id_0)" d="M408.15 280.87863C408.15 282.53546 406.80685 283.87863 405.15 283.87863C403.49313 283.87863 402.15 282.53546 402.15 280.87863C402.15 279.22177 403.49313 277.87863 405.15 277.87863C406.80685 277.87863 408.15 279.22177 408.15 280.87863Z" fill-rule="nonzero"/><path fill="#000000" fill-opacity="0.0" clip-path="url(#id_0)" d="M584.45 253.94742C584.45 255.60428 583.1069 256.94742 581.45 256.94742C579.79315 256.94742 578.45 255.60428 578.45 253.94742C578.45 252.29057 579.79315 250.94742 581.45 250.94742C583.1069 250.94742 584.45 252.29057 584.45 253.94742Z" fill-rule="nonzero"/><path fill="#000000" fill-opacity="0.0" clip-path="url(#id_0)" d="M55.55 193.02493C55.55 194.6818 54.206856 196.02493 52.55 196.02493C50.893147 196.02493 49.55 194.6818 49.55 193.02493C49.55 191.36807 50.893147 190.02493 52.55 190.02493C54.206856 190.02493 55.55 191.36807 55.55 193.02493Z" fill-rule="nonzero"/><path fill="#000000" fill-opacity="0.0" clip-path="url(#id_0)" d="M231.85 278.86813C231.85 280.525 230.50685 281.86813 228.85 281.86813C227.19315 281.86813 225.85 280.525 225.85 278.86813C225.85 277.21127 227.19315 275.86813 228.85 275.86813C230.50685 275.86813 231.85 277.21127 231.85 278.86813Z" fill-rule="nonzero"/><path fill="#000000" fill-opacity="0.0" clip-path="url(#id_0)" d="M408.15 302.61996C408.15 304.27682 406.80685 305.61996 405.15 305.61996C403.49313 305.61996 402.15 304.27682 402.15 302.61996C402.15 300.9631 403.49313 299.61996 405.15 299.61996C406.80685 299.61996 408.15 300.9631 408.15 302.61996Z" fill-rule="nonzero"/><path fill="#000000" fill-opacity="0.0" clip-path="url(#id_0)" d="M584.45 318.4701C584.45 320.12695 583.1069 321.4701 581.45 321.4701C579.79315 321.4701 578.45 320.12695 578.45 318.4701C578.45 316.81323 579.79315 315.4701 581.45 315.4701C583.1069 315.4701 584.45 316.81323 584.45 318.4701Z" fill-rule="nonzero"/><path fill="#000000" fill-opacity="0.0" clip-path="url(#id_0)" d="M55.55 279.38245C55.55 281.0393 54.206856 282.38245 52.55 282.38245C50.893147 282.38245 49.55 281.0393 49.55 279.38245C49.55 277.7256 50.893147 276.38245 52.55 276.38245C54.206856 276.38245 55.55 277.7256 55.55 279.38245Z" fill-rule="nonzero"/><path fill="#000000" fill-opacity="0.0" clip-path="url(#id_0)" d="M231.85 309.3995C231.85 311.05637 230.50685 312.3995 228.85 312.3995C227.19315 312.3995 225.85 311.05637 225.85 309.3995C225.85 307.74265 227.19315 306.3995 228.85 306.3995C230.50685 306.3995 231.85 307.74265 231.85 309.3995Z" fill-rule="nonzero"/><path fill="#000000" fill-opacity="0.0" clip-path="url(#id_0)" d="M408.15 323.1924C408.15 324.84924 406.80685 326.1924 405.15 326.1924C403.49313 326.1924 402.15 324.84924 402.15 323.1924C402.15 321.53555 403.49313 320.1924 405.15 320.1924C406.80685 320.1924 408.15 321.53555 408.15 323.1924Z" fill-rule="nonzero"/><path fill="#000000" fill-opacity="0.0" clip-path="url(#id_0)" d="M584.45 329.97195C584.45 331.6288 583.1069 332.97195 581.45 332.97195C579.79315 332.97195 578.45 331.6288 578.45 329.97195C578.45 328.3151 579.79315 326.97195 581.45 326.97195C583.1069 326.97195 584.45 328.3151 584.45 329.97195Z" fill-rule="nonzero"/><path fill="#000000" fill-opacity="0.0" clip-path="url(#id_0)" d="M55.55 96.94227C55.55 98.59912 54.206856 99.94227 52.55 99.94227C50.893147 99.94227 49.55 98.59912 49.55 96.94227C49.55 95.285416 50.893147 93.94227 52.55 93.94227C54.206856 93.94227 55.55 95.285416 55.55 96.94227Z" fill-rule="nonzero"/><path fill="#000000" fill-opacity="0.0" clip-path="url(#id_0)" d="M231.85 207.00484C231.85 208.6617 230.50685 210.00484 228.85 210.00484C227.19315 210.00484 225.85 208.6617 225.85 207.00484C225.85 205.34799 227.19315 204.00484 228.85 204.00484C230.50685 204.00484 231.85 205.34799 231.85 207.00484Z" fill-rule="nonzero"/><path fill="#000000" fill-opacity="0.0" clip-path="url(#id_0)" d="M408.15 241.79099C408.15 243.44783 406.80685 244.79099 405.15 244.79099C403.49313 244.79099 402.15 243.44783 402.15 241.79099C402.15 240.13412 403.49313 238.79099 405.15 238.79099C406.80685 238.79099 408.15 240.13412 408.15 241.79099Z" fill-rule="nonzero"/><path fill="#000000" fill-opacity="0.0" clip-path="url(#id_0)" d="M584.45 237.48947C584.45 239.14632 583.1069 240.48947 581.45 240.48947C579.79315 240.48947 578.45 239.14632 578.45 237.48947C578.45 235.83261 579.79315 234.48947 581.45 234.48947C583.1069 234.48947 584.45 235.83261 584.45 237.48947Z" fill-rule="nonzero"/><path fill="#000000" d="M40.05 332.21564Q40.05 330.6844 40.3625 329.7625Q40.675 328.825 41.284374 328.325Q41.909374 327.825 42.846874 327.825Q43.534374 327.825 44.05 328.10626Q44.58125 328.3875 44.925 328.91876Q45.26875 329.4344 45.45625 330.1844Q45.64375 330.9344 45.64375 332.21564Q45.64375 333.73126 45.33125 334.65314Q45.034374 335.575 44.409374 336.09064Q43.8 336.59064 42.846874 336.59064Q41.6125 336.59064 40.89375 335.7Q40.05 334.6375 40.05 332.21564ZM41.128124 332.21564Q41.128124 334.325 41.628124 335.02814Q42.128124 335.73126 42.846874 335.73126Q43.58125 335.73126 44.065624 335.02814Q44.565624 334.325 44.565624 332.21564Q44.565624 330.09064 44.065624 329.40314Q43.58125 328.7 42.83125 328.7Q42.1125 328.7 41.675 329.3094Q41.128124 330.09064 41.128124 332.21564Z" fill-rule="nonzero"/><path fill="#000000" d="M24.596874 241.92326L24.596874 242.93889L18.909374 242.93889Q18.909374 242.56389 19.034374 242.20451Q19.253124 241.62639 19.721874 241.06389Q20.20625 240.50139 21.1125 239.76701Q22.51875 238.61076 23.003124 237.93889Q23.503124 237.26701 23.503124 236.67326Q23.503124 236.04826 23.05 235.62639Q22.596874 235.18889 21.878124 235.18889Q21.1125 235.18889 20.659374 235.64201Q20.20625 236.09514 20.190624 236.90764L19.1125 236.79826Q19.221874 235.57951 19.940624 234.95451Q20.675 234.31389 21.909374 234.31389Q23.14375 234.31389 23.8625 235.00139Q24.58125 235.68889 24.58125 236.70451Q24.58125 237.22014 24.3625 237.72014Q24.159374 238.20451 23.659374 238.76701Q23.175 239.31389 22.05 240.26701Q21.096874 241.06389 20.815624 241.36076Q20.55 241.64201 20.378124 241.92326L24.596874 241.92326ZM26.05 238.70451Q26.05 237.17326 26.3625 236.25139Q26.675 235.31389 27.284374 234.81389Q27.909374 234.31389 28.846874 234.31389Q29.534374 234.31389 30.05 234.59514Q30.58125 234.87639 30.925 235.40764Q31.26875 235.92326 31.45625 236.67326Q31.64375 237.42326 31.64375 238.70451Q31.64375 240.22014 31.33125 241.14201Q31.034374 242.06389 30.409374 242.57951Q29.8 243.07951 28.846874 243.07951Q27.6125 243.07951 26.89375 242.18889Q26.05 241.12639 26.05 238.70451ZM27.128124 238.70451Q27.128124 240.81389 27.628124 241.51701Q28.128124 242.22014 28.846874 242.22014Q29.58125 242.22014 30.065624 241.51701Q30.565624 240.81389 30.565624 238.70451Q30.565624 236.57951 30.065624 235.89201Q29.58125 235.18889 28.83125 235.18889Q28.1125 235.18889 27.675 235.79826Q27.128124 236.57951 27.128124 238.70451ZM33.05 238.70451Q33.05 237.17326 33.3625 236.25139Q33.675 235.31389 34.284374 234.81389Q34.909374 234.31389 35.846874 234.31389Q36.534374 234.31389 37.05 234.59514Q37.58125 234.87639 37.925 235.40764Q38.26875 235.92326 38.45625 236.67326Q38.64375 237.42326 38.64375 238.70451Q38.64375 240.22014 38.33125 241.14201Q38.034374 242.06389 37.409374 242.57951Q36.8 243.07951 35.846874 243.07951Q34.6125 243.07951 33.89375 242.18889Q33.05 241.12639 33.05 238.70451ZM34.128124 238.70451Q34.128124 240.81389 34.628124 241.51701Q35.128124 242.22014 35.846874 242.22014Q36.58125 242.22014 37.065624 241.51701Q37.565624 240.81389 37.565624 238.70451Q37.565624 236.57951 37.065624 235.89201Q36.58125 235.18889 35.83125 235.18889Q35.1125 235.18889 34.675 235.79826Q34.128124 236.57951 34.128124 238.70451ZM40.05 238.70451Q40.05 237.17326 40.3625 236.25139Q40.675 235.31389 41.284374 234.81389Q41.909374 234.31389 42.846874 234.31389Q43.534374 234.31389 44.05 234.59514Q44.58125 234.87639 44.925 235.40764Q45.26875 235.92326 45.45625 236.67326Q45.64375 237.42326 45.64375 238.70451Q45.64375 240.22014 45.33125 241.14201Q45.034374 242.06389 44.409374 242.57951Q43.8 243.07951 42.846874 243.07951Q41.6125 243.07951 40.89375 242.18889Q40.05 241.12639 40.05 238.70451ZM41.128124 238.70451Q41.128124 240.81389 41.628124 241.51701Q42.128124 242.22014 42.846874 242.22014Q43.58125 242.22014 44.065624 241.51701Q44.565624 240.81389 44.565624 238.70451Q44.565624 236.57951 44.065624 235.89201Q43.58125 235.18889 42.83125 235.18889Q42.1125 235.18889 41.675 235.79826Q41.128124 236.57951 41.128124 238.70451Z" fill-rule="nonzero"/><path fill="#000000" d="M22.425 149.42778L22.425 147.36528L18.70625 147.36528L18.70625 146.39653L22.628124 140.83403L23.4875 140.83403L23.4875 146.39653L24.64375 146.39653L24.64375 147.36528L23.4875 147.36528L23.4875 149.42778L22.425 149.42778ZM22.425 146.39653L22.425 142.53716L19.7375 146.39653L22.425 146.39653ZM26.05 145.1934Q26.05 143.66216 26.3625 142.74028Q26.675 141.80278 27.284374 141.30278Q27.909374 140.80278 28.846874 140.80278Q29.534374 140.80278 30.05 141.08403Q30.58125 141.36528 30.925 141.89653Q31.26875 142.41216 31.45625 143.16216Q31.64375 143.91216 31.64375 145.1934Q31.64375 146.70903 31.33125 147.6309Q31.034374 148.55278 30.409374 149.0684Q29.8 149.5684 28.846874 149.5684Q27.6125 149.5684 26.89375 148.67778Q26.05 147.61528 26.05 145.1934ZM27.128124 145.1934Q27.128124 147.30278 27.628124 148.0059Q28.128124 148.70903 28.846874 148.70903Q29.58125 148.70903 30.065624 148.0059Q30.565624 147.30278 30.565624 145.1934Q30.565624 143.0684 30.065624 142.3809Q29.58125 141.67778 28.83125 141.67778Q28.1125 141.67778 27.675 142.28716Q27.128124 143.0684 27.128124 145.1934ZM33.05 145.1934Q33.05 143.66216 33.3625 142.74028Q33.675 141.80278 34.284374 141.30278Q34.909374 140.80278 35.846874 140.80278Q36.534374 140.80278 37.05 141.08403Q37.58125 141.36528 37.925 141.89653Q38.26875 142.41216 38.45625 143.16216Q38.64375 143.91216 38.64375 145.1934Q38.64375 146.70903 38.33125 147.6309Q38.034374 148.55278 37.409374 149.0684Q36.8 149.5684 35.846874 149.5684Q34.6125 149.5684 33.89375 148.67778Q33.05 147.61528 33.05 145.1934ZM34.128124 145.1934Q34.128124 147.30278 34.628124 148.0059Q35.128124 148.70903 35.846874 148.70903Q36.58125 148.70903 37.065624 148.0059Q37.565624 147.30278 37.565624 145.1934Q37.565624 143.0684 37.065624 142.3809Q36.58125 141.67778 35.83125 141.67778Q35.1125 141.67778 34.675 142.28716Q34.128124 143.0684 34.128124 145.1934ZM40.05 145.1934Q40.05 143.66216 40.3625 142.74028Q40.675 141.80278 41.284374 141.30278Q41.909374 140.80278 42.846874 140.80278Q43.534374 140.80278 44.05 141.08403Q44.58125 141.36528 44.925 141.89653Q45.26875 142.41216 45.45625 143.16216Q45.64375 143.91216 45.64375 145.1934Q45.64375 146.70903 45.33125 147.6309Q45.034374 148.55278 44.409374 149.0684Q43.8 149.5684 42.846874 149.5684Q41.6125 149.5684 40.89375 148.67778Q40.05 147.61528 40.05 145.1934ZM41.128124 145.1934Q41.128124 147.30278 41.628124 148.0059Q42.128124 148.70903 42.846874 148.70903Q43.58125 148.70903 44.065624 148.0059Q44.565624 147.30278 44.565624 145.1934Q44.565624 143.0684 44.065624 142.3809Q43.58125 141.67778 42.83125 141.67778Q42.1125 141.67778 41.675 142.28716Q41.128124 143.0684 41.128124 145.1934Z" fill-rule="nonzero"/><path fill="#000000" d="M24.51875 49.432293L23.471874 49.510418Q23.33125 48.885418 23.08125 48.604168Q22.64375 48.151043 22.01875 48.151043Q21.51875 48.151043 21.128124 48.432293Q20.64375 48.807293 20.346874 49.510418Q20.065624 50.197918 20.05 51.479168Q20.425 50.901043 20.971874 50.619793Q21.534374 50.338543 22.14375 50.338543Q23.190624 50.338543 23.925 51.119793Q24.675 51.901043 24.675 53.119793Q24.675 53.932293 24.315624 54.635418Q23.971874 55.322918 23.3625 55.697918Q22.753124 56.057293 21.9875 56.057293Q20.659374 56.057293 19.83125 55.088543Q19.003124 54.119793 19.003124 51.901043Q19.003124 49.401043 19.925 48.276043Q20.721874 47.291668 22.08125 47.291668Q23.096874 47.291668 23.7375 47.869793Q24.39375 48.432293 24.51875 49.432293ZM20.221874 53.135418Q20.221874 53.682293 20.440624 54.182293Q20.675 54.666668 21.08125 54.932293Q21.503124 55.197918 21.971874 55.197918Q22.628124 55.197918 23.1125 54.666668Q23.596874 54.119793 23.596874 53.197918Q23.596874 52.307293 23.1125 51.791668Q22.64375 51.276043 21.925 51.276043Q21.20625 51.276043 20.70625 51.791668Q20.221874 52.307293 20.221874 53.135418ZM26.05 51.682293Q26.05 50.151043 26.3625 49.229168Q26.675 48.291668 27.284374 47.791668Q27.909374 47.291668 28.846874 47.291668Q29.534374 47.291668 30.05 47.572918Q30.58125 47.854168 30.925 48.385418Q31.26875 48.901043 31.45625 49.651043Q31.64375 50.401043 31.64375 51.682293Q31.64375 53.197918 31.33125 54.119793Q31.034374 55.041668 30.409374 55.557293Q29.8 56.057293 28.846874 56.057293Q27.6125 56.057293 26.89375 55.166668Q26.05 54.104168 26.05 51.682293ZM27.128124 51.682293Q27.128124 53.791668 27.628124 54.494793Q28.128124 55.197918 28.846874 55.197918Q29.58125 55.197918 30.065624 54.494793Q30.565624 53.791668 30.565624 51.682293Q30.565624 49.557293 30.065624 48.869793Q29.58125 48.166668 28.83125 48.166668Q28.1125 48.166668 27.675 48.776043Q27.128124 49.557293 27.128124 51.682293ZM33.05 51.682293Q33.05 50.151043 33.3625 49.229168Q33.675 48.291668 34.284374 47.791668Q34.909374 47.291668 35.846874 47.291668Q36.534374 47.291668 37.05 47.572918Q37.58125 47.854168 37.925 48.385418Q38.26875 48.901043 38.45625 49.651043Q38.64375 50.401043 38.64375 51.682293Q38.64375 53.197918 38.33125 54.119793Q38.034374 55.041668 37.409374 55.557293Q36.8 56.057293 35.846874 56.057293Q34.6125 56.057293 33.89375 55.166668Q33.05 54.104168 33.05 51.682293ZM34.128124 51.682293Q34.128124 53.791668 34.628124 54.494793Q35.128124 55.197918 35.846874 55.197918Q36.58125 55.197918 37.065624 54.494793Q37.565624 53.791668 37.565624 51.682293Q37.565624 49.557293 37.065624 48.869793Q36.58125 48.166668 35.83125 48.166668Q35.1125 48.166668 34.675 48.776043Q34.128124 49.557293 34.128124 51.682293ZM40.05 51.682293Q40.05 50.151043 40.3625 49.229168Q40.675 48.291668 41.284374 47.791668Q41.909374 47.291668 42.846874 47.291668Q43.534374 47.291668 44.05 47.572918Q44.58125 47.854168 44.925 48.385418Q45.26875 48.901043 45.45625 49.651043Q45.64375 50.401043 45.64375 51.682293Q45.64375 53.197918 45.33125 54.119793Q45.034374 55.041668 44.409374 55.557293Q43.8 56.057293 42.846874 56.057293Q41.6125 56.057293 40.89375 55.166668Q40.05 54.104168 40.05 51.682293ZM41.128124 51.682293Q41.128124 53.791668 41.628124 54.494793Q42.128124 55.197918 42.846874 55.197918Q43.58125 55.197918 44.065624 54.494793Q44.565624 53.791668 44.565624 51.682293Q44.565624 49.557293 44.065624 48.869793Q43.58125 48.166668 42.83125 48.166668Q42.1125 48.166668 41.675 48.776043Q41.128124 49.557293 41.128124 51.682293Z" fill-rule="nonzero"/><path fill="#000000" d="M39.01875 349.45L37.971874 349.45L37.971874 342.73126Q37.58125 343.09064 36.95625 343.46564Q36.346874 343.825 35.8625 343.9969L35.8625 342.98126Q36.7375 342.5594 37.39375 341.98126Q38.065624 341.3875 38.346874 340.825L39.01875 340.825L39.01875 349.45ZM43.675 344.79376Q43.01875 344.54376 42.690624 344.10626Q42.378124 343.65314 42.378124 343.04376Q42.378124 342.10626 43.05 341.46564Q43.7375 340.825 44.846874 340.825Q45.971874 340.825 46.659374 341.48126Q47.346874 342.1375 47.346874 343.075Q47.346874 343.66876 47.034374 344.10626Q46.721874 344.54376 46.08125 344.79376Q46.878124 345.04376 47.284374 345.6219Q47.690624 346.2 47.690624 346.9969Q47.690624 348.09064 46.909374 348.84064Q46.14375 349.59064 44.8625 349.59064Q43.596874 349.59064 42.815624 348.84064Q42.034374 348.09064 42.034374 346.96564Q42.034374 346.1219 42.45625 345.5594Q42.89375 344.9969 43.675 344.79376ZM43.45625 342.9969Q43.45625 343.60626 43.846874 343.9969Q44.253124 344.3875 44.878124 344.3875Q45.4875 344.3875 45.878124 344.0125Q46.26875 343.6219 46.26875 343.0594Q46.26875 342.48126 45.8625 342.09064Q45.45625 341.6844 44.8625 341.6844Q44.253124 341.6844 43.846874 342.075Q43.45625 342.46564 43.45625 342.9969ZM43.128124 346.96564Q43.128124 347.41876 43.33125 347.84064Q43.55 348.2625 43.971874 348.4969Q44.39375 348.73126 44.878124 348.73126Q45.628124 348.73126 46.1125 348.2469Q46.6125 347.7625 46.6125 347.0125Q46.6125 346.2469 46.1125 345.7469Q45.6125 345.2469 44.846874 345.2469Q44.096874 345.2469 43.6125 345.7469Q43.128124 346.23126 43.128124 346.96564ZM49.64375 349.45L49.64375 348.2469L50.846874 348.2469L50.846874 349.45L49.64375 349.45ZM54.89375 347.0125L55.925 346.8719Q55.95625 347.85626 56.284374 348.21564Q56.6125 348.575 57.20625 348.575Q57.628124 348.575 57.940624 348.3875Q58.253124 348.1844 58.3625 347.85626Q58.4875 347.5125 58.4875 346.77814L58.4875 340.85626L59.6125 340.85626L59.6125 346.71564Q59.6125 347.79376 59.346874 348.3875Q59.096874 348.98126 58.534374 349.29376Q57.971874 349.59064 57.20625 349.59064Q56.08125 349.59064 55.471874 348.95Q54.878124 348.29376 54.89375 347.0125ZM61.346874 349.45L61.346874 340.85626L62.39375 340.85626L62.39375 343.9344Q63.128124 343.09064 64.25313 343.09064Q64.95625 343.09064 65.45625 343.3719Q65.97188 343.6375 66.19063 344.1219Q66.40938 344.59064 66.40938 345.5125L66.40938 349.45L65.3625 349.45L65.3625 345.5125Q65.3625 344.71564 65.01875 344.35626Q64.675 343.9969 64.05 343.9969Q63.58125 343.9969 63.159374 344.2469Q62.753124 344.48126 62.565624 344.90314Q62.39375 345.3094 62.39375 346.04376L62.39375 349.45L61.346874 349.45ZM68.64375 349.45L68.64375 348.2469L69.84688 348.2469L69.84688 349.45L68.64375 349.45Z" fill-rule="nonzero"/><path fill="#000000" d="M215.31876 349.45L214.27188 349.45L214.27188 342.73126Q213.88126 343.09064 213.25626 343.46564Q212.64688 343.825 212.1625 343.9969L212.1625 342.98126Q213.0375 342.5594 213.69376 341.98126Q214.36563 341.3875 214.64688 340.825L215.31876 340.825L215.31876 349.45ZM218.50626 347.46564L219.52188 347.3719Q219.64688 348.09064 220.00626 348.41876Q220.38126 348.73126 220.94376 348.73126Q221.42813 348.73126 221.7875 348.5125Q222.1625 348.27814 222.39688 347.91876Q222.63126 347.54376 222.7875 346.91876Q222.94376 346.27814 222.94376 345.6219Q222.94376 345.54376 222.94376 345.40314Q222.63126 345.90314 222.08438 346.23126Q221.5375 346.54376 220.89688 346.54376Q219.81876 346.54376 219.08438 345.77814Q218.35 344.9969 218.35 343.73126Q218.35 342.41876 219.11563 341.6219Q219.89688 340.825 221.05313 340.825Q221.88126 340.825 222.56876 341.27814Q223.27188 341.73126 223.63126 342.575Q223.99063 343.40314 223.99063 344.98126Q223.99063 346.6219 223.63126 347.60626Q223.2875 348.575 222.56876 349.09064Q221.86563 349.59064 220.92813 349.59064Q219.9125 349.59064 219.27188 349.04376Q218.63126 348.48126 218.50626 347.46564ZM222.81876 343.66876Q222.81876 342.7625 222.33438 342.23126Q221.86563 341.7 221.17813 341.7Q220.475 341.7 219.94376 342.27814Q219.42813 342.84064 219.42813 343.7625Q219.42813 344.575 219.92813 345.09064Q220.42813 345.60626 221.14688 345.60626Q221.88126 345.60626 222.35 345.09064Q222.81876 344.575 222.81876 343.66876ZM225.94376 349.45L225.94376 348.2469L227.14688 348.2469L227.14688 349.45L225.94376 349.45ZM231.19376 347.0125L232.225 346.8719Q232.25626 347.85626 232.58438 348.21564Q232.9125 348.575 233.50626 348.575Q233.92813 348.575 234.24063 348.3875Q234.55313 348.1844 234.6625 347.85626Q234.7875 347.5125 234.7875 346.77814L234.7875 340.85626L235.9125 340.85626L235.9125 346.71564Q235.9125 347.79376 235.64688 348.3875Q235.39688 348.98126 234.83438 349.29376Q234.27188 349.59064 233.50626 349.59064Q232.38126 349.59064 231.77188 348.95Q231.17813 348.29376 231.19376 347.0125ZM237.64688 349.45L237.64688 340.85626L238.69376 340.85626L238.69376 343.9344Q239.42813 343.09064 240.55313 343.09064Q241.25626 343.09064 241.75626 343.3719Q242.27188 343.6375 242.49063 344.1219Q242.70938 344.59064 242.70938 345.5125L242.70938 349.45L241.6625 349.45L241.6625 345.5125Q241.6625 344.71564 241.31876 344.35626Q240.975 343.9969 240.35 343.9969Q239.88126 343.9969 239.45938 344.2469Q239.05313 344.48126 238.86563 344.90314Q238.69376 345.3094 238.69376 346.04376L238.69376 349.45L237.64688 349.45ZM244.94376 349.45L244.94376 348.2469L246.14688 348.2469L246.14688 349.45L244.94376 349.45Z" fill-rule="nonzero"/><path fill="#000000" d="M393.19687 348.4344L393.19687 349.45L387.50937 349.45Q387.50937 349.075 387.63437 348.71564Q387.85312 348.1375 388.32187 347.575Q388.80624 347.0125 389.7125 346.27814Q391.11874 345.1219 391.60312 344.45Q392.10312 343.77814 392.10312 343.1844Q392.10312 342.5594 391.65 342.1375Q391.19687 341.7 390.47812 341.7Q389.7125 341.7 389.25937 342.15314Q388.80624 342.60626 388.79062 343.41876L387.7125 343.3094Q387.82187 342.09064 388.54062 341.46564Q389.275 340.825 390.50937 340.825Q391.74374 340.825 392.4625 341.5125Q393.18124 342.2 393.18124 343.21564Q393.18124 343.73126 392.9625 344.23126Q392.75937 344.71564 392.25937 345.27814Q391.775 345.825 390.65 346.77814Q389.69687 347.575 389.41562 347.8719Q389.15 348.15314 388.97812 348.4344L393.19687 348.4344ZM394.65 345.21564Q394.65 343.6844 394.9625 342.7625Q395.275 341.825 395.88437 341.325Q396.50937 340.825 397.44687 340.825Q398.13437 340.825 398.65 341.10626Q399.18124 341.3875 399.525 341.91876Q399.86874 342.4344 400.05624 343.1844Q400.24374 343.9344 400.24374 345.21564Q400.24374 346.73126 399.93124 347.65314Q399.63437 348.575 399.00937 349.09064Q398.4 349.59064 397.44687 349.59064Q396.2125 349.59064 395.49374 348.7Q394.65 347.6375 394.65 345.21564ZM395.72812 345.21564Q395.72812 347.325 396.22812 348.02814Q396.72812 348.73126 397.44687 348.73126Q398.18124 348.73126 398.66562 348.02814Q399.16562 347.325 399.16562 345.21564Q399.16562 343.09064 398.66562 342.40314Q398.18124 341.7 397.43124 341.7Q396.7125 341.7 396.275 342.3094Q395.72812 343.09064 395.72812 345.21564ZM402.24374 349.45L402.24374 348.2469L403.44687 348.2469L403.44687 349.45L402.24374 349.45ZM407.49374 347.0125L408.525 346.8719Q408.55624 347.85626 408.88437 348.21564Q409.2125 348.575 409.80624 348.575Q410.22812 348.575 410.54062 348.3875Q410.85312 348.1844 410.9625 347.85626Q411.0875 347.5125 411.0875 346.77814L411.0875 340.85626L412.2125 340.85626L412.2125 346.71564Q412.2125 347.79376 411.94687 348.3875Q411.69687 348.98126 411.13437 349.29376Q410.57187 349.59064 409.80624 349.59064Q408.68124 349.59064 408.07187 348.95Q407.47812 348.29376 407.49374 347.0125ZM413.94687 349.45L413.94687 340.85626L414.99374 340.85626L414.99374 343.9344Q415.72812 343.09064 416.85312 343.09064Q417.55624 343.09064 418.05624 343.3719Q418.57187 343.6375 418.79062 344.1219Q419.00937 344.59064 419.00937 345.5125L419.00937 349.45L417.9625 349.45L417.9625 345.5125Q417.9625 344.71564 417.61874 344.35626Q417.275 343.9969 416.65 343.9969Q416.18124 343.9969 415.75937 344.2469Q415.35312 344.48126 415.16562 344.90314Q414.99374 345.3094 414.99374 346.04376L414.99374 349.45L413.94687 349.45ZM421.24374 349.45L421.24374 348.2469L422.44687 348.2469L422.44687 349.45L421.24374 349.45Z" fill-rule="nonzero"/><path fill="#000000" d="M569.4969 348.4344L569.4969 349.45L563.8094 349.45Q563.8094 349.075 563.9344 348.71564Q564.15314 348.1375 564.6219 347.575Q565.10626 347.0125 566.0125 346.27814Q567.41876 345.1219 567.90314 344.45Q568.40314 343.77814 568.40314 343.1844Q568.40314 342.5594 567.95 342.1375Q567.4969 341.7 566.77814 341.7Q566.0125 341.7 565.5594 342.15314Q565.10626 342.60626 565.09064 343.41876L564.0125 343.3094Q564.1219 342.09064 564.84064 341.46564Q565.575 340.825 566.8094 340.825Q568.04376 340.825 568.7625 341.5125Q569.48126 342.2 569.48126 343.21564Q569.48126 343.73126 569.2625 344.23126Q569.0594 344.71564 568.5594 345.27814Q568.075 345.825 566.95 346.77814Q565.9969 347.575 565.71564 347.8719Q565.45 348.15314 565.27814 348.4344L569.4969 348.4344ZM574.91876 349.45L573.8719 349.45L573.8719 342.73126Q573.48126 343.09064 572.85626 343.46564Q572.2469 343.825 571.7625 343.9969L571.7625 342.98126Q572.6375 342.5594 573.29376 341.98126Q573.96564 341.3875 574.2469 340.825L574.91876 340.825L574.91876 349.45ZM578.54376 349.45L578.54376 348.2469L579.7469 348.2469L579.7469 349.45L578.54376 349.45ZM583.79376 347.0125L584.825 346.8719Q584.85626 347.85626 585.1844 348.21564Q585.5125 348.575 586.10626 348.575Q586.52814 348.575 586.84064 348.3875Q587.15314 348.1844 587.2625 347.85626Q587.3875 347.5125 587.3875 346.77814L587.3875 340.85626L588.5125 340.85626L588.5125 346.71564Q588.5125 347.79376 588.2469 348.3875Q587.9969 348.98126 587.4344 349.29376Q586.8719 349.59064 586.10626 349.59064Q584.98126 349.59064 584.3719 348.95Q583.77814 348.29376 583.79376 347.0125ZM590.2469 349.45L590.2469 340.85626L591.29376 340.85626L591.29376 343.9344Q592.02814 343.09064 593.15314 343.09064Q593.85626 343.09064 594.35626 343.3719Q594.8719 343.6375 595.09064 344.1219Q595.3094 344.59064 595.3094 345.5125L595.3094 349.45L594.2625 349.45L594.2625 345.5125Q594.2625 344.71564 593.91876 344.35626Q593.575 343.9969 592.95 343.9969Q592.48126 343.9969 592.0594 344.2469Q591.65314 344.48126 591.46564 344.90314Q591.29376 345.3094 591.29376 346.04376L591.29376 349.45L590.2469 349.45ZM597.54376 349.45L597.54376 348.2469L598.7469 348.2469L598.7469 349.45L597.54376 349.45Z" fill-rule="nonzero"/><path fill="#ffdd00" d="M173.0 20.55C173.0 19.997715 173.44771 19.55 174.0 19.55L184.0 19.55C184.55229 19.55 185.0 19.997715 185.0 20.55L185.0 30.55C185.0 31.102285 184.55229 31.55 184.0 31.55L174.0 31.55C173.44771 31.55 173.0 31.102285 173.0 30.55Z" fill-rule="nonzero"/><path fill="#1a1a1a" d="M193.875 29.55L193.875 20.95625L195.01562 20.95625L195.01562 25.221874L199.28125 20.95625L200.82812 20.95625L197.21875 24.440624L200.98438 29.55L199.48438 29.55L196.42188 25.20625L195.01562 26.565624L195.01562 29.55L193.875 29.55ZM201.40625 26.440624Q201.40625 24.70625 202.35938 23.878124Q203.15625 23.190624 204.3125 23.190624Q205.59375 23.190624 206.40625 24.034374Q207.23438 24.8625 207.23438 26.346874Q207.23438 27.55 206.875 28.2375Q206.51562 28.925 205.8125 29.315624Q205.125 29.690624 204.3125 29.690624Q203.01562 29.690624 202.20312 28.8625Q201.40625 28.01875 201.40625 26.440624ZM202.48438 26.440624Q202.48438 27.628124 203.0 28.221874Q203.53125 28.815624 204.3125 28.815624Q205.10938 28.815624 205.625 28.221874Q206.14062 27.628124 206.14062 26.409374Q206.14062 25.253124 205.60938 24.659374Q205.09375 24.065624 204.3125 24.065624Q203.53125 24.065624 203.0 24.659374Q202.48438 25.2375 202.48438 26.440624ZM208.79688 31.940624L208.79688 23.33125L209.75 23.33125L209.75 24.128124Q210.09375 23.659374 210.51562 23.425Q210.95312 23.190624 211.5625 23.190624Q212.35938 23.190624 212.96875 23.596874Q213.57812 24.003124 213.875 24.753124Q214.1875 25.503124 214.1875 26.39375Q214.1875 27.346874 213.84375 28.1125Q213.51562 28.878124 212.85938 29.284374Q212.20312 29.690624 211.48438 29.690624Q210.95312 29.690624 210.53125 29.471874Q210.10938 29.2375 209.84375 28.909374L209.84375 31.940624L208.79688 31.940624ZM209.75 26.471874Q209.75 27.675 210.23438 28.253124Q210.71875 28.815624 211.40625 28.815624Q212.10938 28.815624 212.60938 28.221874Q213.10938 27.628124 213.10938 26.378124Q213.10938 25.190624 212.625 24.6125Q212.14062 24.01875 211.45312 24.01875Q210.78125 24.01875 210.26562 24.64375Q209.75 25.26875 209.75 26.471874ZM216.04688 29.55L216.04688 24.14375L215.10938 24.14375L215.10938 23.33125L216.04688 23.33125L216.04688 22.659374Q216.04688 22.034374 216.15625 21.7375Q216.3125 21.315624 216.6875 21.065624Q217.07812 20.815624 217.76562 20.815624Q218.21875 20.815624 218.75 20.925L218.59375 21.83125Q218.26562 21.784374 217.96875 21.784374Q217.48438 21.784374 217.28125 21.9875Q217.09375 22.190624 217.09375 22.753124L217.09375 23.33125L218.3125 23.33125L218.3125 24.14375L217.09375 24.14375L217.09375 29.55L216.04688 29.55Z" fill-rule="nonzero"/><path fill="#f28585" d="M234.0 20.55C234.0 19.997715 234.44771 19.55 235.0 19.55L245.0 19.55C245.55229 19.55 246.0 19.997715 246.0 20.55L246.0 30.55C246.0 31.102285 245.55229 31.55 245.0 31.55L235.0 31.55C234.44771 31.55 234.0 31.102285 234.0 30.55Z" fill-rule="nonzero"/><path fill="#1a1a1a" d="M254.96875 29.55L254.96875 20.95625L256.09375 20.95625L256.09375 24.4875L260.5625 24.4875L260.5625 20.95625L261.70312 20.95625L261.70312 29.55L260.5625 29.55L260.5625 25.503124L256.09375 25.503124L256.09375 29.55L254.96875 29.55ZM268.04688 27.55L269.14062 27.675Q268.89062 28.628124 268.1875 29.159374Q267.48438 29.690624 266.40625 29.690624Q265.04688 29.690624 264.23438 28.846874Q263.4375 28.003124 263.4375 26.4875Q263.4375 24.925 264.25 24.065624Q265.0625 23.190624 266.34375 23.190624Q267.59375 23.190624 268.375 24.034374Q269.17188 24.878124 269.17188 26.425Q269.17188 26.51875 269.17188 26.70625L264.53125 26.70625Q264.59375 27.7375 265.10938 28.284374Q265.625 28.815624 266.40625 28.815624Q266.98438 28.815624 267.39062 28.51875Q267.8125 28.20625 268.04688 27.55ZM264.59375 25.846874L268.0625 25.846874Q268.0 25.05 267.67188 24.659374Q267.15625 24.05 266.35938 24.05Q265.625 24.05 265.125 24.534374Q264.64062 25.01875 264.59375 25.846874ZM270.78125 29.55L270.78125 23.33125L271.73438 23.33125L271.73438 24.26875Q272.09375 23.6125 272.39062 23.409374Q272.70312 23.190624 273.07812 23.190624Q273.60938 23.190624 274.15625 23.51875L273.79688 24.503124Q273.40625 24.26875 273.03125 24.26875Q272.67188 24.26875 272.39062 24.4875Q272.125 24.690624 272.01562 25.065624Q271.82812 25.628124 271.82812 26.284374L271.82812 29.55L270.78125 29.55ZM274.23438 29.55L274.23438 28.690624L278.20312 24.14375Q277.51562 24.175 277.0 24.175L274.46875 24.175L274.46875 23.33125L279.5625 23.33125L279.5625 24.01875L276.1875 27.971874L275.53125 28.690624Q276.25 28.64375 276.85938 28.64375L279.75 28.64375L279.75 29.55L274.23438 29.55Z" fill-rule="nonzero"/><path fill="#40005a" d="M295.0 20.55C295.0 19.997715 295.44772 19.55 296.0 19.55L306.0 19.55C306.55228 19.55 307.0 19.997715 307.0 20.55L307.0 30.55C307.0 31.102285 306.55228 31.55 306.0 31.55L296.0 31.55C295.44772 31.55 295.0 31.102285 295.0 30.55Z" fill-rule="nonzero"/><path fill="#1a1a1a" d="M315.54688 26.784374L316.60938 26.690624Q316.6875 27.346874 316.96875 27.753124Q317.25 28.159374 317.82812 28.425Q318.42188 28.675 319.15625 28.675Q319.79688 28.675 320.29688 28.4875Q320.79688 28.284374 321.03125 27.95625Q321.28125 27.6125 321.28125 27.221874Q321.28125 26.815624 321.04688 26.51875Q320.8125 26.20625 320.28125 26.003124Q319.92188 25.8625 318.73438 25.58125Q317.5625 25.3 317.09375 25.05Q316.46875 24.721874 316.17188 24.253124Q315.875 23.76875 315.875 23.175Q315.875 22.534374 316.23438 21.971874Q316.60938 21.39375 317.3125 21.1125Q318.03125 20.815624 318.89062 20.815624Q319.84375 20.815624 320.57812 21.128124Q321.3125 21.425 321.70312 22.034374Q322.09375 22.628124 322.125 23.378124L321.03125 23.45625Q320.9375 22.64375 320.42188 22.2375Q319.92188 21.815624 318.9375 21.815624Q317.90625 21.815624 317.4375 22.190624Q316.96875 22.565624 316.96875 23.096874Q316.96875 23.565624 317.29688 23.8625Q317.625 24.159374 319.0 24.471874Q320.39062 24.784374 320.90625 25.01875Q321.65625 25.378124 322.01562 25.909374Q322.375 26.425 322.375 27.128124Q322.375 27.815624 321.98438 28.425Q321.59375 29.01875 320.85938 29.3625Q320.125 29.690624 319.20312 29.690624Q318.03125 29.690624 317.23438 29.3625Q316.45312 29.01875 316.0 28.33125Q315.5625 27.64375 315.54688 26.784374ZM328.04688 27.55L329.14062 27.675Q328.89062 28.628124 328.1875 29.159374Q327.48438 29.690624 326.40625 29.690624Q325.04688 29.690624 324.23438 28.846874Q323.4375 28.003124 323.4375 26.4875Q323.4375 24.925 324.25 24.065624Q325.0625 23.190624 326.34375 23.190624Q327.59375 23.190624 328.375 24.034374Q329.17188 24.878124 329.17188 26.425Q329.17188 26.51875 329.17188 26.70625L324.53125 26.70625Q324.59375 27.7375 325.10938 28.284374Q325.625 28.815624 326.40625 28.815624Q326.98438 28.815624 327.39062 28.51875Q327.8125 28.20625 328.04688 27.55ZM324.59375 25.846874L328.0625 25.846874Q328.0 25.05 327.67188 24.659374Q327.15625 24.05 326.35938 24.05Q325.625 24.05 325.125 24.534374Q324.64062 25.01875 324.59375 25.846874ZM335.04688 27.55L336.14062 27.675Q335.89062 28.628124 335.1875 29.159374Q334.48438 29.690624 333.40625 29.690624Q332.04688 29.690624 331.23438 28.846874Q330.4375 28.003124 330.4375 26.4875Q330.4375 24.925 331.25 24.065624Q332.0625 23.190624 333.34375 23.190624Q334.59375 23.190624 335.375 24.034374Q336.17188 24.878124 336.17188 26.425Q336.17188 26.51875 336.17188 26.70625L331.53125 26.70625Q331.59375 27.7375 332.10938 28.284374Q332.625 28.815624 333.40625 28.815624Q333.98438 28.815624 334.39062 28.51875Q334.8125 28.20625 335.04688 27.55ZM331.59375 25.846874L335.0625 25.846874Q335.0 25.05 334.67188 24.659374Q334.15625 24.05 333.35938 24.05Q332.625 24.05 332.125 24.534374Q331.64062 25.01875 331.59375 25.846874ZM337.76562 29.55L337.76562 20.95625L338.82812 20.95625L338.82812 29.55L337.76562 29.55ZM345.04688 27.55L346.14062 27.675Q345.89062 28.628124 345.1875 29.159374Q344.48438 29.690624 343.40625 29.690624Q342.04688 29.690624 341.23438 28.846874Q340.4375 28.003124 340.4375 26.4875Q340.4375 24.925 341.25 24.065624Q342.0625 23.190624 343.34375 23.190624Q344.59375 23.190624 345.375 24.034374Q346.17188 24.878124 346.17188 26.425Q346.17188 26.51875 346.17188 26.70625L341.53125 26.70625Q341.59375 27.7375 342.10938 28.284374Q342.625 28.815624 343.40625 28.815624Q343.98438 28.815624 344.39062 28.51875Q344.8125 28.20625 345.04688 27.55ZM341.59375 25.846874L345.0625 25.846874Q345.0 25.05 344.67188 24.659374Q344.15625 24.05 343.35938 24.05Q342.625 24.05 342.125 24.534374Q341.64062 25.01875 341.59375 25.846874Z" fill-rule="nonzero"/><path fill="#695656" d="M363.0 20.55C363.0 19.997715 363.44772 19.55 364.0 19.55L374.0 19.55C374.55228 19.55 375.0 19.997715 375.0 20.55L375.0 30.55C375.0 31.102285 374.55228 31.55 374.0 31.55L364.0 31.55C363.44772 31.55 363.0 31.102285 363.0 30.55Z" fill-rule="nonzero"/><path fill="#1a1a1a" d="M387.95312 26.175L387.95312 25.175L391.57812 25.159374L391.57812 28.346874Q390.75 29.01875 389.85938 29.3625Q388.96875 29.690624 388.03125 29.690624Q386.76562 29.690624 385.71875 29.159374Q384.6875 28.6125 384.15625 27.596874Q383.64062 26.565624 383.64062 25.3Q383.64062 24.034374 384.15625 22.95625Q384.6875 21.8625 385.67188 21.346874Q386.65625 20.815624 387.9375 20.815624Q388.875 20.815624 389.625 21.1125Q390.375 21.409374 390.79688 21.95625Q391.23438 22.4875 391.45312 23.3625L390.4375 23.64375Q390.23438 22.9875 389.9375 22.6125Q389.65625 22.2375 389.125 22.01875Q388.59375 21.784374 387.95312 21.784374Q387.17188 21.784374 386.59375 22.01875Q386.03125 22.253124 385.67188 22.64375Q385.32812 23.034374 385.14062 23.503124Q384.8125 24.3 384.8125 25.221874Q384.8125 26.378124 385.20312 27.159374Q385.60938 27.925 386.35938 28.3Q387.10938 28.675 387.96875 28.675Q388.70312 28.675 389.40625 28.39375Q390.10938 28.096874 390.46875 27.784374L390.46875 26.175L387.95312 26.175ZM397.04688 27.55L398.14062 27.675Q397.89062 28.628124 397.1875 29.159374Q396.48438 29.690624 395.40625 29.690624Q394.04688 29.690624 393.23438 28.846874Q392.4375 28.003124 392.4375 26.4875Q392.4375 24.925 393.25 24.065624Q394.0625 23.190624 395.34375 23.190624Q396.59375 23.190624 397.375 24.034374Q398.17188 24.878124 398.17188 26.425Q398.17188 26.51875 398.17188 26.70625L393.53125 26.70625Q393.59375 27.7375 394.10938 28.284374Q394.625 28.815624 395.40625 28.815624Q395.98438 28.815624 396.39062 28.51875Q396.8125 28.20625 397.04688 27.55ZM393.59375 25.846874L397.0625 25.846874Q397.0 25.05 396.67188 24.659374Q396.15625 24.05 395.35938 24.05Q394.625 24.05 394.125 24.534374Q393.64062 25.01875 393.59375 25.846874ZM399.375 27.690624L400.40625 27.534374Q400.5 28.159374 400.89062 28.4875Q401.29688 28.815624 402.03125 28.815624Q402.75 28.815624 403.09375 28.534374Q403.45312 28.2375 403.45312 27.83125Q403.45312 27.471874 403.14062 27.26875Q402.92188 27.128124 402.0625 26.909374Q400.90625 26.6125 400.45312 26.409374Q400.01562 26.190624 399.78125 25.815624Q399.54688 25.440624 399.54688 24.971874Q399.54688 24.565624 399.73438 24.20625Q399.92188 23.846874 400.25 23.6125Q400.5 23.440624 400.92188 23.315624Q401.34375 23.190624 401.84375 23.190624Q402.5625 23.190624 403.10938 23.409374Q403.67188 23.6125 403.9375 23.971874Q404.20312 24.33125 404.29688 24.925L403.26562 25.065624Q403.20312 24.596874 402.85938 24.33125Q402.53125 24.05 401.90625 24.05Q401.1875 24.05 400.875 24.3Q400.5625 24.534374 400.5625 24.8625Q400.5625 25.065624 400.6875 25.221874Q400.82812 25.39375 401.09375 25.503124Q401.25 25.565624 402.03125 25.76875Q403.15625 26.08125 403.59375 26.26875Q404.03125 26.45625 404.28125 26.815624Q404.53125 27.175 404.53125 27.721874Q404.53125 28.253124 404.21875 28.721874Q403.92188 29.175 403.34375 29.440624Q402.76562 29.690624 402.03125 29.690624Q400.8125 29.690624 400.17188 29.190624Q399.54688 28.675 399.375 27.690624ZM410.85938 28.784374Q410.26562 29.284374 409.71875 29.4875Q409.1875 29.690624 408.5625 29.690624Q407.53125 29.690624 406.98438 29.190624Q406.4375 28.690624 406.4375 27.909374Q406.4375 27.45625 406.64062 27.08125Q406.84375 26.690624 407.1875 26.471874Q407.53125 26.2375 407.95312 26.128124Q408.25 26.034374 408.89062 25.95625Q410.15625 25.815624 410.76562 25.596874Q410.76562 25.378124 410.76562 25.33125Q410.76562 24.675 410.46875 24.409374Q410.0625 24.065624 409.26562 24.065624Q408.53125 24.065624 408.17188 24.33125Q407.8125 24.58125 407.64062 25.2375L406.60938 25.096874Q406.75 24.440624 407.07812 24.034374Q407.40625 23.628124 408.01562 23.409374Q408.625 23.190624 409.42188 23.190624Q410.21875 23.190624 410.71875 23.378124Q411.21875 23.565624 411.45312 23.846874Q411.6875 24.128124 411.78125 24.565624Q411.82812 24.83125 411.82812 25.534374L411.82812 26.940624Q411.82812 28.409374 411.89062 28.8Q411.96875 29.190624 412.17188 29.55L411.0625 29.55Q410.90625 29.221874 410.85938 28.784374ZM410.76562 26.425Q410.1875 26.659374 409.04688 26.83125Q408.39062 26.925 408.125 27.05Q407.85938 27.159374 407.70312 27.378124Q407.5625 27.596874 407.5625 27.878124Q407.5625 28.3 407.875 28.58125Q408.20312 28.8625 408.8125 28.8625Q409.42188 28.8625 409.89062 28.596874Q410.375 28.33125 410.59375 27.8625Q410.76562 27.503124 410.76562 26.815624L410.76562 26.425ZM413.79688 29.55L413.79688 23.33125L414.73438 23.33125L414.73438 24.20625Q415.03125 23.7375 415.51562 23.471874Q416.0 23.190624 416.625 23.190624Q417.3125 23.190624 417.75 23.471874Q418.20312 23.753124 418.375 24.26875Q419.125 23.190624 420.29688 23.190624Q421.23438 23.190624 421.71875 23.70625Q422.21875 24.20625 422.21875 25.284374L422.21875 29.55L421.17188 29.55L421.17188 25.628124Q421.17188 25.003124 421.0625 24.721874Q420.96875 24.440624 420.70312 24.26875Q420.4375 24.096874 420.0625 24.096874Q419.40625 24.096874 418.96875 24.534374Q418.54688 24.971874 418.54688 25.940624L418.54688 29.55L417.48438 29.55L417.48438 25.503124Q417.48438 24.8 417.21875 24.45625Q416.96875 24.096874 416.39062 24.096874Q415.9375 24.096874 415.5625 24.33125Q415.1875 24.565624 415.01562 25.01875Q414.84375 25.471874 414.84375 26.315624L414.84375 29.55L413.79688 29.55ZM427.09375 28.6125L427.25 29.534374Q426.79688 29.628124 426.45312 29.628124Q425.875 29.628124 425.5625 29.45625Q425.25 29.26875 425.10938 28.971874Q424.98438 28.675 424.98438 27.721874L424.98438 24.14375L424.21875 24.14375L424.21875 23.33125L424.98438 23.33125L424.98438 21.784374L426.03125 21.159374L426.03125 23.33125L427.09375 23.33125L427.09375 24.14375L426.03125 24.14375L426.03125 27.784374Q426.03125 28.2375 426.07812 28.3625Q426.14062 28.4875 426.26562 28.565624Q426.39062 28.64375 426.625 28.64375Q426.8125 28.64375 427.09375 28.6125Z" fill-rule="nonzero"/></svg>