<?xml version="1.0" encoding="UTF-8"?>
<svg width="1200px" height="1100px" viewBox="0 0 1200 1100" version="1.1" xmlns="http://www.w3.org/2000/svg" xmlns:xlink="http://www.w3.org/1999/xlink">
    <!-- Generator: Sketch 56.3 (81716) - https://sketch.com -->
    <title>Modell 8b (final)</title>
    <desc>Created with Sketch.</desc>
    <defs>
        <rect id="path-1" x="7" y="8" width="44" height="68"></rect>
        <mask id="mask-2" maskContentUnits="userSpaceOnUse" maskUnits="objectBoundingBox" x="0" y="0" width="44" height="68" fill="white">
            <use xlink:href="#path-1"></use>
        </mask>
    </defs>
    <g id="Modell-8b-(final)" stroke="none" stroke-width="1" fill="none" fill-rule="evenodd">
        <g id="Group-2" transform="translate(109.000000, 124.000000)">
            <g id="Group-3" transform="translate(154.000000, 650.000000)">
                <rect id="Rectangle" fill="#9D9D9D" x="9" y="0" width="78" height="2"></rect>
                <rect id="Rectangle-Copy-20" fill="#9D9D9D" x="9" y="94" width="78" height="2"></rect>
                <rect id="Rectangle-Copy-23" fill="#9D9D9D" transform="translate(95.000000, 48.000000) rotate(-270.000000) translate(-95.000000, -48.000000) " x="56" y="47" width="78" height="2"></rect>
                <rect id="Rectangle-Copy-24" fill="#9D9D9D" transform="translate(1.000000, 48.000000) rotate(-270.000000) translate(-1.000000, -48.000000) " x="-38" y="47" width="78" height="2"></rect>
                <circle id="Oval" fill="#58007C" cx="25" cy="71" r="6"></circle>
            </g>
            <g id="Group-5" transform="translate(437.000000, 501.000000)" fill="#58007C">
                <circle id="Oval-Copy-3" opacity="0.200888497" cx="5" cy="51" r="5"></circle>
                <circle id="Oval-Copy-5" cx="29" cy="27" r="5"></circle>
                <circle id="Oval-Copy-6" opacity="0.600206648" cx="17" cy="39" r="5"></circle>
                <circle id="Oval-Copy-7" opacity="0.598100935" cx="40" cy="16" r="5"></circle>
                <circle id="Oval-Copy-4" opacity="0.196507" cx="51" cy="5" r="5"></circle>
            </g>
            <g id="Group-4" transform="translate(310.000000, 670.000000)" stroke-width="2">
                <path d="M5,51 L51,5" id="Line" stroke="#58007C" stroke-linecap="square"></path>
                <circle id="Oval-Copy" stroke="#9D9D9D" fill="#FFFFFF" cx="5" cy="51" r="5"></circle>
                <circle id="Oval-Copy-2" stroke="#9D9D9D" fill="#FFFFFF" cx="51" cy="5" r="5"></circle>
            </g>
            <g id="Group-6" transform="translate(801.000000, 19.000000)" stroke="#58007C" stroke-dasharray="5,3" stroke-width="2">
                <path d="M0,62.1190571 C0,86.0818082 18,86.0818082 31.2,86.0818082 C44.4,86.0818082 78,72.3888075 78,46.7144313 C78,21.0400551 63.6521739,-15.6512345 42,7.34705448 C20.3478261,30.3453435 0,38.1563059 0,62.1190571 Z" id="Path"></path>
            </g>
            <g id="Group-7" transform="translate(607.000000, 418.000000)">
                <path id="Line-2" d="M29,6.38888889 L25.75,-0.611111111 L32.25,-0.611111111 L29,6.38888889 Z" fill="#9D9D9D" fill-rule="nonzero"></path>
                <path id="Line-2-Copy" d="M29,85.3888889 L25.75,78.3888889 L32.25,78.3888889 L29,85.3888889 Z" fill="#9D9D9D" fill-rule="nonzero"></path>
                <path id="Line-2-Copy-2" d="M56,45.3888889 L52.75,38.3888889 L59.25,38.3888889 L56,45.3888889 Z" fill="#9D9D9D" fill-rule="nonzero"></path>
                <path id="Line-2-Copy-3" d="M2.5,44.8888889 L-0.75,37.8888889 L5.75,37.8888889 L2.5,44.8888889 Z" fill="#9D9D9D" fill-rule="nonzero"></path>
                <use id="Rectangle" stroke="#58007C" mask="url(#mask-2)" stroke-width="4" stroke-dasharray="5,3" xlink:href="#path-1"></use>
            </g>
            <g id="Group-9" transform="translate(154.000000, 812.000000)" fill="#000000">
                <path id="Line-13" d="M731.5,1 L-0.5,1 L-0.5,0 L731.5,0 L731.5,-4 L740.5,0.5 L731.5,5 L731.5,1 Z" fill-rule="nonzero"></path>
                <text id="Eng" font-family="Helvetica-Bold, Helvetica" font-size="14" font-weight="bold">
                    <tspan x="0" y="37">Eng</tspan>
                </text>
                <text id="Weit" font-family="Helvetica-Bold, Helvetica" font-size="14" font-weight="bold">
                    <tspan x="710.694336" y="37">Weit</tspan>
                </text>
            </g>
            <path id="Line-16" d="M85.5,10.5 L85.5,742.5 L84.5,742.5 L84.5,10.5 L80.5,10.5 L85,1.5 L89.5,10.5 L85.5,10.5 Z" fill="#000000" fill-rule="nonzero"></path>
            <text id="Explizit" font-family="Helvetica-Bold, Helvetica" font-size="14" font-weight="bold" fill="#000000">
                <tspan x="0.993164062" y="742">Explizit</tspan>
            </text>
            <text id="Implizit" font-family="Helvetica-Bold, Helvetica" font-size="14" font-weight="bold" fill="#000000">
                <tspan x="1.77929688" y="14">Implizit</tspan>
            </text>
            <g id="Group" transform="translate(602.000000, 123.000000)" stroke="#58007C">
                <path d="M11,71 L5,5" id="Line-3" stroke-dasharray="5,3"></path>
                <path d="M73,60 C73,60 64.3333333,52.6666667 47,38" id="Line-5" stroke-dasharray="5,3"></path>
                <path d="M47,37 C47,37 55.6666667,29.6666667 73,15" id="Line-5" stroke-dasharray="5,3"></path>
                <path d="M5,5 L47,38" id="Line-7" stroke-dasharray="5,3"></path>
                <circle id="Oval-Copy-2" stroke-width="2" fill="#FFFFFF" cx="73" cy="60" r="5"></circle>
                <circle id="Oval-Copy-10" stroke-width="2" fill="#FFFFFF" cx="73" cy="15" r="5"></circle>
                <circle id="Oval-Copy" stroke-width="2" fill="#FFFFFF" cx="11" cy="70" r="5"></circle>
                <circle id="Oval-Copy-9" stroke-width="2" fill="#FFFFFF" cx="47" cy="38" r="5"></circle>
                <circle id="Oval-Copy-8" stroke-width="2" fill="#FFFFFF" cx="5" cy="5" r="5"></circle>
            </g>
        </g>
    </g>
</svg>